<svg width="120" height="45" viewBox="0 0 120 45" fill="none" xmlns="http://www.w3.org/2000/svg">
<path d="M56.1695 16.9608C54.8824 17.0383 53.616 17.7749 52.8268 18.3348V17.541C52.8268 17.2735 52.6099 17.0584 52.3415 17.0584H50.3962C50.1295 17.0584 49.9126 17.2735 49.9126 17.541V29.3409C49.9126 29.4694 49.9635 29.5927 50.0541 29.6837C50.1448 29.7746 50.2678 29.8258 50.3962 29.826H52.3415C52.4052 29.8261 52.4683 29.8137 52.5272 29.7894C52.5861 29.7651 52.6396 29.7293 52.6847 29.6843C52.7298 29.6392 52.7655 29.5857 52.7899 29.5267C52.8143 29.4678 52.8268 29.4047 52.8268 29.3409V21.1867C53.2662 20.8197 54.6243 19.7981 56.2433 19.6561C56.4912 19.6332 56.6836 19.4245 56.6836 19.1731V17.4434C56.6842 17.3774 56.6709 17.3121 56.6447 17.2515C56.6185 17.191 56.58 17.1366 56.5315 17.092C56.4349 16.9984 56.302 16.9482 56.1695 16.9608ZM40.9917 24.2964C39.8486 24.4034 39.3051 24.9272 39.3051 25.9344C39.3051 26.555 39.4755 27.6011 40.6097 27.6011C41.9552 27.6011 43.7841 27.0921 43.8024 27.0871V24.1462L40.9917 24.2964ZM46.7158 21.0732V29.5397C46.7158 29.6814 46.6546 29.8149 46.5498 29.9063C46.4427 29.999 46.3015 30.0398 46.1655 30.0195C45.1759 29.8807 44.7047 29.5711 44.2369 29.211C44.2171 29.2197 42.0277 30.1048 40.0732 30.1048C37.7179 30.1048 36.3676 28.6163 36.3676 26.0146C36.3676 23.4737 37.6033 22.3496 40.6359 22.1234L43.8024 21.869V21.0982C43.8024 20.1243 43.225 19.5646 42.2188 19.5646C40.8306 19.5646 38.8514 19.727 37.7966 19.8218C37.7308 19.8287 37.6644 19.8218 37.6015 19.8016C37.5386 19.7814 37.4805 19.7484 37.431 19.7046C37.3335 19.6198 37.2723 19.4922 37.2674 19.3609L37.2038 17.7427C37.194 17.4957 37.3697 17.2806 37.6104 17.2443C38.5544 17.0935 40.9044 16.7506 42.3722 16.7506C45.3365 16.7506 46.7158 18.1261 46.7158 21.0732ZM6.26491 14.9859H5.19923C4.00919 14.9859 3.33152 15.0745 2.98831 15.1444V20.1889C3.55741 20.2269 4.65082 20.2856 6.12264 20.2694C8.02213 20.2493 9.20044 19.2395 9.20044 17.6369C9.20044 16.3558 8.42934 14.9859 6.26491 14.9859ZM12.3907 29.145C12.457 29.2947 12.4416 29.4671 12.3544 29.6047C12.2637 29.7435 12.1125 29.826 11.9478 29.826H9.68721C9.49758 29.826 9.32139 29.7121 9.24694 29.537L6.35258 23.0147C4.9134 23.0046 3.66385 22.9281 2.98831 22.8807V29.3409C2.98861 29.4045 2.97635 29.4676 2.95222 29.5265C2.9281 29.5854 2.89258 29.6389 2.84772 29.684C2.80285 29.7291 2.74953 29.7648 2.69081 29.7892C2.6321 29.8136 2.56915 29.8261 2.50559 29.826H0.484723C0.420993 29.8262 0.35785 29.8138 0.298917 29.7895C0.239984 29.7652 0.18642 29.7295 0.141296 29.6844C0.096172 29.6394 0.0603767 29.5858 0.0359623 29.5268C0.0115478 29.4679 -0.00100489 29.4047 -0.000976514 29.3409V12.9823C-0.000976514 12.7345 0.185027 12.5271 0.431183 12.4993C3.02371 12.2075 5.09812 12.1757 5.86667 12.1757L6.27515 12.178C11.2478 12.178 12.2936 15.1198 12.2936 17.5848C12.2936 19.643 11.3111 21.1311 9.29302 22.1332L12.3907 29.145ZM69.1241 17.2458C69.0791 17.187 69.0211 17.1395 68.9547 17.107C68.8882 17.0745 68.8151 17.0579 68.7412 17.0584H66.8528C66.7462 17.0586 66.6427 17.0938 66.5581 17.1586C66.4734 17.2235 66.4124 17.3144 66.3844 17.4173L63.8505 26.9846H63.6572L61.121 17.4173C61.0933 17.3143 61.0325 17.2233 60.9479 17.1584C60.8633 17.0935 60.7598 17.0584 60.6532 17.0584H58.7653C58.6917 17.0589 58.6191 17.0761 58.5531 17.1087C58.4871 17.1413 58.4293 17.1886 58.3842 17.2468C58.339 17.305 58.3077 17.3727 58.2925 17.4449C58.2773 17.517 58.2786 17.5917 58.2964 17.6632L61.0858 28.3928C61.2245 28.9232 61.7166 29.826 62.6886 29.826H63.2291C63.1831 30.0048 63.1329 30.196 63.0792 30.3609L63.0547 30.4421C62.9034 30.9371 62.6748 31.6845 61.297 31.6845L58.8834 31.5371C58.8162 31.5316 58.7485 31.541 58.6853 31.5646C58.622 31.5882 58.5647 31.6254 58.5174 31.6736C58.4176 31.7715 58.3625 31.905 58.3702 32.0419L58.4297 33.3087C58.4387 33.521 58.588 33.7024 58.7983 33.7547C59.5097 33.931 60.8678 34.138 61.9849 34.1805C62.0387 34.1837 62.0871 34.1837 62.1385 34.1837C63.9593 34.1837 65.1939 33.0038 65.8168 30.6813L69.2105 17.666C69.2489 17.5199 69.2141 17.3658 69.1241 17.2458ZM22.6759 23.3784C22.6759 20.5221 21.9009 19.4119 19.9159 19.4119C17.859 19.4119 17.1301 20.4501 17.1301 23.3784C17.1301 26.0333 17.5732 27.4697 19.9159 27.4697C22.2226 27.4697 22.6759 25.9699 22.6759 23.3784ZM25.6383 23.3784C25.6383 28.0299 23.8734 30.1048 19.9159 30.1048C15.9405 30.1048 14.1669 28.0299 14.1669 23.3784C14.1669 18.7945 15.9405 16.7506 19.9159 16.7506C23.8196 16.7506 25.6383 18.8546 25.6383 23.3784ZM34.8314 27.7522L34.9146 29.3569C34.9201 29.4734 34.8836 29.588 34.8116 29.6797C34.7396 29.7714 34.6371 29.834 34.5227 29.8561C33.8448 29.9819 32.9125 30.1347 32.3295 30.1347C29.3927 30.1347 28.4979 29.0089 28.4979 25.3233V19.6937H27.3718C27.2432 19.6934 27.1199 19.6422 27.0289 19.5511C26.9379 19.46 26.8866 19.3365 26.8863 19.2077V17.541C26.8863 17.2735 27.1035 17.0584 27.3718 17.0584H28.4979V15.0781C28.4979 14.8532 28.65 14.6584 28.8656 14.6063L30.8116 14.1309C30.9554 14.097 31.1064 14.1282 31.2237 14.2207C31.341 14.3132 31.4112 14.4518 31.4112 14.6018V17.0584H34.3756C34.6439 17.0584 34.8583 17.2735 34.8583 17.541V19.2077C34.8583 19.4747 34.6439 19.6937 34.3756 19.6937H31.4112V24.9125C31.4112 26.7184 31.4748 27.3448 32.7391 27.3448C33.206 27.3448 33.9349 27.3112 34.3267 27.2924C34.5876 27.2856 34.8197 27.4832 34.8314 27.7522Z" fill="#00488C"/>
<path d="M88.7259 7.91538L88.8034 8.04804L89.0907 8.54407L89.6847 8.23175C89.7398 8.20441 89.772 8.13413 89.7818 8.04804C89.7929 7.78058 89.5996 7.41721 89.3187 7.58554L88.7259 7.91538ZM88.1054 8.04804L87.9484 7.7667C88.3614 7.50543 88.8034 7.27835 89.2315 7.04935C89.7344 6.77015 90.4435 7.44412 90.3938 8.04804C90.3848 8.15592 90.355 8.25183 90.2914 8.34903L91.32 9.09949L90.7481 9.36844L89.8466 8.7092L89.3501 8.97537L89.8793 9.85186L89.3117 10.2031L88.1054 8.04804ZM101.701 36.2934L102.637 38.9722L103.2 38.7719L102.291 36.1056L101.701 36.2934ZM97.9561 38.8208L97.7364 38.2795L97.5142 37.6943L97.1326 38.8571L97.9561 38.8208ZM98.3256 38.2795L98.9386 39.7684L98.3732 39.8171L98.1835 39.3356L96.9589 39.3709L96.8182 39.8731L96.245 39.8502L96.7742 38.2795L97.1501 37.0881L97.1688 37.0496L97.793 37.0219L97.8252 37.0971L98.3256 38.2795ZM101.401 6.97544L102.034 7.18009C102.208 7.22901 102.436 6.95792 102.436 6.72187C102.436 6.60886 102.397 6.5091 102.246 6.47577C102.013 6.38541 101.852 6.34461 101.597 6.28095L101.466 6.72187L101.401 6.97544ZM101.013 8.45563L100.369 8.29028L100.828 6.72187L101.164 5.60313C101.65 5.72275 102.11 5.88041 102.571 6.03058C102.832 6.11069 102.971 6.40635 102.998 6.72187C103.015 7.14933 102.803 7.61331 102.372 7.71008L102.539 8.97537L101.964 8.74017L101.817 7.63532L101.276 7.46912L101.013 8.45563ZM92.407 36.9332C92.3908 36.8544 92.3581 36.7907 92.2606 36.7459L91.552 36.4842L91.391 36.9332L91.3347 37.0971L91.3298 37.1084L91.9761 37.3502C92.1533 37.4292 92.3246 37.2705 92.3869 37.0971C92.407 37.0496 92.4257 36.9905 92.407 36.9332ZM92.9385 36.9332V37.0881C92.895 37.466 92.6393 37.8494 92.2244 37.8981L92.3206 39.2168C92.1286 39.1728 91.91 39.1092 91.7054 39.022L91.6832 37.7809L91.1261 37.5416L90.6743 38.6371L90.1303 38.4305L90.7029 37.0971L90.7718 36.9332L91.2376 35.8333L92.5053 36.3233C92.7877 36.4246 92.9174 36.6756 92.9385 36.9332ZM101.031 36.5331C100.207 36.7132 99.5726 36.8634 98.756 36.9905L98.8311 37.466C99.1332 37.4184 99.41 37.382 99.7287 37.3419L100.141 39.6293L100.747 39.5157L100.255 37.2334L101.164 37.0043L101.031 36.5331ZM104.124 9.76406L104.735 8.58466L106.386 7.8154C106.213 7.69043 106.025 7.60306 105.851 7.4892L104.714 8.00766L104.504 6.77015C104.266 6.65778 104.124 6.60886 103.876 6.5091L104.207 8.30652L103.594 9.47311L104.124 9.76406ZM110.316 10.4853C110.056 10.1667 109.623 10.2142 109.499 10.4365L107.577 12.3707C107.295 12.664 107.322 13.0942 107.614 13.3029C110.515 16.5182 111.727 20.5217 110.776 25.4792C110.755 25.8046 110.96 26.0652 111.213 26.1382L113.871 26.9094C114.224 27.0107 114.451 26.7955 114.525 26.4918C115.894 20.389 114.021 14.389 110.316 10.4853ZM113.39 28.3319L110.73 27.4232C110.591 27.3708 110.228 27.3708 110.037 27.8395C107.89 32.9981 102.89 36.5282 97.0999 36.5282C91.3025 36.5282 86.2108 32.9169 84.1552 27.7592C84.1091 27.6274 84.0137 27.5186 83.8891 27.4559C83.7645 27.3932 83.6204 27.3815 83.4873 27.4232L80.8423 28.3319C80.5556 28.4357 80.382 28.6908 80.5332 29.0595C83.1315 35.6993 89.5922 40.3871 97.0999 40.3871C104.606 40.3871 111.097 35.6671 113.703 29.0307C113.838 28.6831 113.675 28.4357 113.39 28.3319ZM80.4085 26.9094L83.0605 26.1382C83.3101 26.0652 83.5151 25.8046 83.4948 25.4792C82.5424 20.5306 83.752 16.5182 86.6488 13.3029C86.9423 13.0942 86.9736 12.664 86.694 12.3707L84.7646 10.4293C84.5771 10.2142 84.2363 10.2142 83.9445 10.513C80.2474 14.4091 78.3814 20.389 79.7504 26.502C79.8263 26.7955 80.0574 27.0107 80.4085 26.9094ZM107.024 14.5377C107.032 14.4204 106.959 14.2702 106.793 14.1068C104.67 11.8567 102.488 10.5978 99.4964 9.8854C99.3277 9.84289 99.1332 9.80294 99.0035 9.91851C98.8697 10.0255 98.8311 10.233 98.8584 10.5431L99.3516 17.4756C99.3667 17.7382 99.4853 17.9456 99.6598 18.0518C99.852 18.1605 100.082 18.1404 100.32 18.0257L106.554 15.0117C106.753 14.9154 106.982 14.8092 107.024 14.5956C107.024 14.583 107.032 14.5654 107.024 14.5377ZM108.285 26.9295C108.471 27.0495 108.684 27.1957 108.88 27.1271C109.012 27.0867 109.126 26.9417 109.2 26.6795C110.072 23.7166 110.072 21.1856 109.2 18.2577C109.146 18.0742 109.06 17.8841 108.906 17.8155C108.752 17.7591 108.556 17.8232 108.276 18.0131L102.558 21.9066C102.337 22.0553 102.225 22.2593 102.225 22.4693C102.225 22.6782 102.337 22.8807 102.558 23.0266L108.285 26.9295ZM98.9873 34.9856C99.092 35.0681 99.2656 35.0931 99.5314 35.0268C102.506 34.3116 104.686 33.0496 106.812 30.8157C106.939 30.6683 107.078 30.5168 107.036 30.3494C106.998 30.1881 106.861 30.042 106.571 29.9057L100.335 26.8757C100.099 26.7633 99.8695 26.7633 99.6786 26.8633C99.4964 26.9793 99.3842 27.1754 99.3667 27.4492L98.8633 34.3618C98.8584 34.5881 98.8311 34.8472 98.9873 34.9856ZM97.0999 26.9793C99.5628 26.9793 101.564 24.9778 101.564 22.5118C101.564 20.0457 99.5628 18.0432 97.0999 18.0342C94.6384 18.0342 92.6393 20.0468 92.6393 22.5118C92.6393 24.9768 94.6384 26.9793 97.0999 26.9793ZM87.2931 30.4645C87.2931 30.5833 87.3731 30.7307 87.5239 30.8883C89.6685 33.1455 91.8387 34.4031 94.8205 35.1033C95.0117 35.1621 95.1985 35.1907 95.3314 35.0869C95.4647 34.9856 95.5038 34.7782 95.4814 34.452C95.4814 34.4407 94.9743 27.5204 94.9743 27.5204C94.953 27.2578 94.8532 27.0581 94.6697 26.9519C94.4833 26.843 94.2529 26.843 94.0046 26.9568L87.7848 29.9881C87.5677 30.0894 87.3328 30.2032 87.3006 30.4066C87.3006 30.4205 87.2931 30.447 87.2931 30.4645ZM87.2031 14.6494C87.2296 14.8581 87.4666 14.9643 87.6737 15.0615L93.8999 18.0906C94.1467 18.2094 94.3762 18.2094 94.565 18.1103C94.7395 17.9966 94.8532 17.7967 94.869 17.5316L95.3721 10.6143C95.3999 10.2806 95.3525 10.0843 95.2326 9.98175C95.1002 9.86917 94.905 9.901 94.7182 9.9356C91.7355 10.6542 89.56 11.9167 87.4164 14.1555C87.2435 14.3505 87.1632 14.5155 87.2031 14.6494ZM85.9527 18.0592C85.7492 17.9281 85.5332 17.7766 85.3559 17.8554C85.2111 17.8995 85.1063 18.0518 85.0302 18.2968C84.165 21.2717 84.165 23.7933 85.0302 26.7283C85.0888 26.9192 85.1552 27.1091 85.3286 27.1581C85.4709 27.2166 85.6803 27.1581 85.9527 26.9694L91.6653 23.0719C91.8778 22.9281 92.0074 22.7256 92.0074 22.5218C92.0074 22.2994 91.8778 22.1055 91.6653 21.9555L85.9527 18.0592ZM85.8279 9.40155L87.6737 11.4607C87.9309 11.7379 88.2155 11.704 88.5886 11.4124C90.9204 9.58035 93.9118 8.49643 97.0999 8.49643C100.291 8.49643 103.286 9.57586 105.64 11.4124C106.008 11.6843 106.284 11.7379 106.554 11.4607L108.401 9.40155C108.609 9.17425 108.609 8.86023 108.21 8.5242C105.115 6.11069 101.293 4.62153 97.0923 4.62153C92.9174 4.62153 89.0418 6.11069 86.0012 8.53552C85.6042 8.86023 85.6217 9.17425 85.8279 9.40155ZM119.584 22.5293C119.584 22.7918 119.572 23.0544 119.543 23.2642L119.536 23.3218L119.475 23.3528C118.52 23.9219 117.285 24.2466 116.047 24.2808C116.017 24.4367 115.884 25.5567 115.86 25.7144C117.015 26.0477 118.134 26.6795 118.914 27.4868L118.946 27.537V27.5881C118.884 28.0294 118.728 28.6207 118.556 29.0044L118.536 29.0657L118.48 29.0743C117.398 29.3855 116.122 29.3744 114.942 29.0817L114.406 30.4205C115.44 31.0757 116.354 31.9744 116.868 32.9344L116.896 32.9882L116.879 33.0442C116.718 33.4268 116.415 33.9792 116.145 34.3116L116.116 34.3618H116.047C114.942 34.3744 113.709 34.047 112.632 33.4456L111.717 34.6545C112.566 35.5295 113.209 36.6393 113.47 37.7334L113.487 37.7907L113.456 37.8291C113.209 38.1643 112.756 38.6084 112.427 38.8744L112.389 38.9081L112.307 38.8919C111.244 38.6084 110.121 37.9646 109.248 37.1195C109.118 37.2167 108.227 37.9144 108.095 38.0133C108.665 39.0609 109.012 40.2642 109.012 41.3535V41.5045L108.945 41.5421C108.617 41.8068 108.07 42.124 107.681 42.2832L107.641 42.3007L107.577 42.2795C106.62 41.7209 105.704 40.8109 105.077 39.7684L103.693 40.3646C103.842 40.9502 103.927 41.5505 103.945 42.1546C103.945 42.7608 103.84 43.3684 103.693 43.9157L103.684 43.9708L103.627 44.0022C103.263 44.1532 102.65 44.3055 102.225 44.3794L102.159 44.3893L102.122 44.3431C101.298 43.5583 100.667 42.4421 100.335 41.2759C100.189 41.2873 99.0647 41.4396 98.906 41.4723C98.8872 42.6957 98.5517 43.936 97.97 44.8966L97.9387 44.9473L97.8725 44.9556C97.4832 45.0156 96.8578 45.0156 96.4325 44.9556L96.38 44.9473L96.3425 44.8966C95.7794 43.936 95.4423 42.6957 95.415 41.4723C95.2478 41.4556 94.0627 41.2873 93.8999 41.2759C93.5746 42.4346 92.9385 43.5444 92.1359 44.3382L92.0934 44.3794L92.0275 44.3696C91.5883 44.3055 91.0115 44.1357 90.6233 43.9744L90.5772 43.952L90.5572 43.9033C90.3938 43.3566 90.3102 42.7446 90.3102 42.1371C90.3102 41.5421 90.3938 40.9457 90.5446 40.3646L89.2217 39.8171C88.5886 40.8782 87.6737 41.7997 86.7078 42.337L86.6564 42.3656L86.5952 42.3494C86.1957 42.1706 85.669 41.8683 85.3286 41.612L85.2874 41.5707V41.4556C85.2874 40.3531 85.6217 39.1406 86.1957 38.0806C86.0686 37.9806 85.1125 37.2545 84.9815 37.1558C84.1068 38.0009 82.992 38.6371 81.9148 38.9143L81.8598 38.9306L81.8011 38.8919C81.4718 38.6272 81.0486 38.1985 80.7815 37.862L80.7453 37.8029L80.7615 37.7458C81.0486 36.6581 81.6924 35.5483 82.5313 34.6855C82.4351 34.555 81.7126 33.6169 81.6104 33.4757C80.5445 34.0743 79.2999 34.4193 78.1939 34.392H78.1355L78.0977 34.3544C77.8396 34.0119 77.5301 33.4644 77.3641 33.0769L77.339 33.0196L77.3641 32.9675C77.9207 31.9919 78.8291 31.0917 79.8667 30.4694L79.2824 29.1131C78.1026 29.4079 76.8196 29.4156 75.7415 29.1131L75.689 29.0971L75.6564 29.0482C75.5107 28.6831 75.3505 28.0707 75.2846 27.6383L75.2731 27.5706L75.3119 27.5204C76.0971 26.7193 77.2003 26.0844 78.3814 25.7341C78.3688 25.5694 78.1939 24.378 78.1779 24.2131C76.9444 24.1968 75.7065 23.8779 74.743 23.3045L74.6942 23.2716L74.6893 23.2054C74.6628 23.0057 74.6543 22.7431 74.6543 22.4778C74.6543 22.2193 74.6628 21.9658 74.6893 21.7494L74.6942 21.6829L74.743 21.6556C75.7065 21.0867 76.9444 20.7577 78.1779 20.7393C78.2029 20.5768 78.3488 19.4181 78.3688 19.2619C77.2003 18.9268 76.086 18.287 75.2946 17.488L75.2618 17.4491L75.2731 17.3868C75.3245 16.942 75.4917 16.3456 75.6564 15.9768L75.6752 15.923L75.7326 15.9066C76.7987 15.5915 78.0879 15.6004 79.2726 15.8916C79.3383 15.7466 79.7705 14.703 79.8353 14.5454C78.7895 13.9118 77.8718 13.0105 77.3251 12.0368L77.2978 11.9755L77.3251 11.9167C77.4975 11.526 77.8057 10.9965 78.0482 10.6641L78.0879 10.6143H78.1542C79.2726 10.5978 80.5055 10.9405 81.5703 11.5314C81.6687 11.4124 82.3952 10.4293 82.4942 10.2981C81.6503 9.41714 81.0111 8.31314 80.735 7.21918L80.7229 7.17304L80.7453 7.12412C81.016 6.78553 81.4643 6.34461 81.7913 6.08506L81.8436 6.0528L81.8937 6.06284C82.992 6.34461 84.1002 6.99958 84.9628 7.83975C85.0888 7.73935 85.9527 7.07349 86.0811 6.97544C85.4871 5.93467 85.1552 4.71916 85.1552 3.64015V3.47844L85.21 3.44084C85.5332 3.18642 86.0811 2.87196 86.4717 2.71324L86.5142 2.68675L86.579 2.71452C87.5414 3.26033 88.4463 4.17164 89.0794 5.2169C89.2315 5.15943 90.355 4.67024 90.5083 4.60935C90.3624 4.02638 90.2699 3.42482 90.2801 2.8271C90.2801 2.20525 90.355 1.6133 90.5181 1.06771L90.5258 1.00042L90.5845 0.98525C90.9462 0.832937 91.552 0.670584 91.9761 0.604361L92.045 0.595816L92.0934 0.638968C92.895 1.4189 93.5339 2.53722 93.8707 3.71556C94.0358 3.6989 95.2164 3.55021 95.3739 3.52159C95.3999 2.30779 95.7305 1.06771 96.3098 0.103844L96.3348 0.0547102L96.3962 0.0376204C96.8182 -0.0117263 97.4408 -0.0117263 97.8514 0.0376204L97.9052 0.0547102L97.9387 0.103844C98.5216 1.06771 98.8584 2.30779 98.8584 3.51027C99.0357 3.55021 100.189 3.6989 100.354 3.71556C100.699 2.53722 101.333 1.42788 102.139 0.644308L102.176 0.604361L102.228 0.620596C102.715 0.684499 103.192 0.812199 103.645 1.00042L103.693 1.01922L103.712 1.08501C103.876 1.62548 103.956 2.21422 103.956 2.8271C103.945 3.43016 103.857 4.03813 103.712 4.62153L105.136 5.2169C105.757 4.17164 106.651 3.26652 107.624 2.71452L107.681 2.68675L107.739 2.71324C108.124 2.87688 108.663 3.18642 108.995 3.4481L109.044 3.47844V3.62947C109.044 4.73667 108.701 5.94535 108.124 6.97544L109.313 7.90555C110.187 7.05555 111.296 6.40635 112.389 6.13846L112.438 6.11069L112.486 6.16175C112.815 6.40635 113.258 6.86927 113.509 7.20038L113.556 7.24952L113.536 7.3057C113.258 8.39966 112.599 9.51028 111.761 10.3791C111.858 10.513 112.556 11.4333 112.663 11.5655C113.751 10.9789 114.979 10.6444 116.093 10.6641H116.145L116.181 10.7147C116.451 11.0605 116.761 11.5969 116.912 11.9657L116.949 12.0368L116.912 12.0906C116.359 13.0566 115.45 13.9504 114.406 14.5894L114.975 15.9429C116.145 15.6481 117.431 15.6404 118.497 15.9429L118.561 15.9553L118.584 16.0168C118.733 16.3881 118.907 16.9903 118.963 17.4329L118.973 17.488L118.929 17.5316C118.146 18.3429 117.032 18.9791 115.86 19.3106L116.057 20.7793C117.29 20.8054 118.52 21.1369 119.475 21.7032L119.536 21.7395L119.543 21.7968C119.572 22.0055 119.584 22.2593 119.584 22.5293ZM106.998 33.1455L108.167 34.4095L106.204 33.8293C106.041 33.9534 105.931 33.9968 105.786 34.123L107.496 36.4246C107.641 36.3109 107.793 36.1719 107.929 36.0554L106.892 34.672L108.875 35.2695C109.012 35.151 109.206 35.017 109.341 34.8493L107.361 32.753C107.256 32.8682 107.134 33.0196 106.998 33.1455ZM105.64 36.5119C105.64 36.3417 105.596 36.1909 105.516 36.0443C105.282 35.6083 104.725 35.4667 104.292 35.7158C103.987 35.8794 103.831 36.1909 103.831 36.5119C103.84 36.6581 103.876 36.8234 103.963 36.9618C103.987 37.0043 104.016 37.0496 104.06 37.0971C104.332 37.4233 104.811 37.4982 105.181 37.2831C105.282 37.2334 105.363 37.168 105.428 37.0971C105.562 36.9332 105.64 36.7132 105.64 36.5119ZM105.958 35.8068C106.078 36.0183 106.137 36.262 106.147 36.5119C106.147 36.707 106.106 36.9067 106.025 37.0881C105.894 37.3502 105.698 37.5856 105.428 37.7418C104.767 38.128 103.913 37.8981 103.512 37.2167C103.498 37.1782 103.48 37.1357 103.453 37.0881C103.372 36.9067 103.333 36.707 103.317 36.5119C103.333 36.0106 103.578 35.5483 104.026 35.2879C104.697 34.9068 105.562 35.1356 105.958 35.8068ZM108.914 32.0419L109.248 32.5693L109.553 33.1021L109.965 32.5693L110.072 32.4367L108.914 32.0419ZM108.594 31.3968L111.408 32.322C111.342 32.4057 111.289 32.4856 111.229 32.5693C111.181 32.633 111.123 32.6971 111.083 32.7795L110.591 32.6016L109.824 33.5631L110.103 34.003C109.989 34.133 109.86 34.276 109.714 34.4193L108.188 31.8883L108.594 31.3968ZM111.71 30.9793L109.644 29.8407L109.379 30.3171L111.858 31.7033L112.815 29.9881L112.389 29.7593L111.71 30.9793ZM95.3721 36.9618L95.1667 38.6845L94.34 36.7944C94.1467 36.7572 94.0255 36.707 93.831 36.6756L93.1813 39.4619C93.3831 39.5157 93.5746 39.5371 93.7822 39.5721L94.1294 37.862L94.9669 39.7684C95.1561 39.797 95.3722 39.8571 95.5936 39.8502L95.9041 36.9729C95.7407 36.9646 95.5471 36.9905 95.3721 36.9618ZM95.2764 5.71827L95.5247 8.02603L96.13 7.96152L95.8928 5.67213L96.8092 5.61424L96.7742 5.10047C95.752 5.15943 95.3314 5.20023 94.3191 5.35169L94.3867 5.84089L95.2764 5.71827ZM98.0797 6.97544C98.387 6.99018 98.6729 7.02414 98.9595 7.06537L98.8089 6.47577L98.6191 5.86823L98.3333 6.47577L98.0797 6.97544ZM97.6117 7.93546L97.0351 7.93289L98.3732 5.15153L99.0035 5.2169L99.3354 6.47577L99.7936 8.16681C99.5815 8.12814 99.4164 8.09546 99.2155 8.08435L99.0532 7.55286C98.6366 7.4892 98.2595 7.46912 97.8725 7.4516L97.6117 7.93546ZM91.753 7.23798C91.7901 7.73935 92.2348 8.10529 92.7165 8.06406C93.193 8.01578 93.5477 7.63532 93.5477 7.15595C93.5652 7.13181 93.5477 7.10404 93.5477 7.07349C93.5066 6.56806 93.0736 6.21473 92.5716 6.26215C92.0934 6.29847 91.7355 6.6753 91.753 7.15595V7.23798ZM91.2376 7.28818V7.15595C91.2223 6.42664 91.7803 5.82529 92.5143 5.76698C92.6986 5.74886 92.8846 5.76762 93.0616 5.82217C93.2386 5.87672 93.403 5.96596 93.5453 6.08471C93.6875 6.20346 93.8048 6.34934 93.8902 6.51388C93.9757 6.67842 94.0276 6.85833 94.043 7.04316V7.15595C94.043 7.8844 93.4936 8.50668 92.7487 8.57568C91.9949 8.64212 91.3025 8.07303 91.2376 7.28818ZM97.1501 25.2105C98.6191 25.2105 99.8271 24.002 99.8271 22.5293C99.8271 21.3052 98.977 20.2416 97.8077 19.9492C97.793 19.8291 97.7601 19.2703 97.7601 19.2703H96.411L96.3685 19.9979C95.8254 20.1614 95.3495 20.4961 95.0116 20.9521C94.6736 21.4082 94.4916 21.9613 94.4927 22.5293C94.4927 24.002 95.6983 25.2105 97.1501 25.2105ZM97.0999 26.5428C94.8867 26.5428 93.078 24.7243 93.078 22.5118C93.078 20.2843 94.8867 18.4741 97.0999 18.4741C99.3277 18.4741 101.12 20.2843 101.12 22.5118C101.12 24.7341 99.319 26.5428 97.0999 26.5428ZM89.1764 35.3208C89.56 35.5295 89.9356 35.7468 90.355 35.9471L90.6058 35.5295C90.0252 35.2294 89.4813 34.8856 88.9917 34.5456L87.3906 36.901C87.9973 37.3032 88.5525 37.6405 89.1764 38.0009L89.4352 37.5856L88.143 36.8234L88.5802 36.2097L89.4352 36.7243L89.6847 36.3233C89.41 36.1719 89.1229 35.9982 88.8234 35.8145L89.1764 35.3208ZM85.9738 31.8283L84.6571 32.9675L85.3286 31.0142C85.21 30.8471 85.1552 30.7307 85.0302 30.5769L82.6699 32.1805C82.776 32.3395 82.9044 32.4856 83.017 32.6494L84.4361 31.6657L83.7708 33.633C83.8854 33.7633 84.0018 33.9617 84.165 34.0944L86.3482 32.2194C86.227 32.0904 86.0811 31.9744 85.9738 31.8283ZM84.4137 29.5581L81.9833 30.9793C82.071 31.1509 82.1644 31.3506 82.2717 31.5142L84.7068 30.0894L84.4137 29.5581ZM87.4164 33.9869L85.9188 35.767L85.4521 35.362L87.0009 33.633C86.7563 33.4059 86.5683 33.2006 86.3307 32.9882L86.6752 32.642C87.2658 33.2006 87.7848 33.633 88.4365 34.158L88.1368 34.5406L87.4164 33.9869Z" fill="#F6AA1C"/>
</svg>
