<svg width="278" height="58" viewBox="0 0 278 58" fill="none" xmlns="http://www.w3.org/2000/svg">
<path d="M174.156 1.91009H175.848C178.462 1.91009 180.59 3.12188 180.59 6.75572C180.59 10.4065 178.428 11.7718 175.111 11.7718H174.156V1.91009ZM173 12.7955H175.044C178.914 12.7955 181.745 11.1403 181.745 6.82407C181.745 3.34407 180.087 0.886702 175.898 0.886702H173V12.7955ZM184.158 12.7955H185.213V4.09408H184.158V12.7955ZM185.214 0.340191H184.158V1.77366H185.214V0.340191ZM187.123 12.591C187.877 12.8981 188.698 13 189.519 13C190.809 13 192.501 12.3693 192.501 10.5268C192.501 7.67698 188.296 7.8815 188.296 6.26143C188.296 5.15177 189.05 4.81082 190.139 4.81082C190.725 4.81082 191.479 4.96491 192.032 5.21986L192.132 4.28146C191.379 3.99195 190.474 3.88956 190.022 3.88956C188.614 3.88956 187.24 4.53794 187.24 6.26143C187.24 8.78612 191.345 8.46206 191.345 10.5268C191.345 11.5161 190.457 12.0793 189.452 12.0793C188.631 12.0793 187.86 11.8571 187.224 11.5333L187.123 12.591ZM198.08 4.09408H196.136V1.62058L195.081 1.99533V4.09408H193.406V5.01534H195.081V10.1C195.081 11.6868 195.148 13 197.025 13C197.544 13 198.063 12.8636 198.315 12.7617L198.248 11.8747C197.946 11.9935 197.678 12.0793 197.275 12.0793C196.422 12.0793 196.136 11.4304 196.136 10.6458V5.01534H198.08V4.09408ZM199.973 12.7955H201.029V8.49636C201.029 6.92646 201.481 5.01534 203.156 5.01534C203.424 5.01534 203.709 5.05015 203.927 5.1185V3.99195C203.742 3.9405 203.441 3.88956 203.189 3.88956C202.101 3.88956 201.38 4.79366 200.995 5.76637H200.962V4.09408H199.906C199.973 4.72532 199.973 5.08343 199.973 6.03976V12.7955ZM205.552 12.7955H206.607V4.09408H205.552V12.7955ZM206.607 0.340191H205.552V1.77366H206.607V0.340191ZM209.271 12.7955H210.326V8.32511L214.549 12.7955H216.006L211.332 7.94985L215.503 4.09408H214.146L210.326 7.66034V0H209.271V12.7955ZM221.333 4.09408H219.39V1.62058L218.335 1.99533V4.09408H216.659V5.01534H218.335V10.1C218.335 11.6868 218.402 13 220.278 13C220.798 13 221.317 12.8636 221.568 12.7617L221.501 11.8747C221.199 11.9935 220.932 12.0793 220.529 12.0793C219.675 12.0793 219.39 11.4304 219.39 10.6458V5.01534H221.333V4.09408ZM227.399 12.7955H234.418V11.7718H228.822L230.933 9.4171C232.441 7.72869 234.15 5.66373 234.15 3.88956C234.15 1.73987 232.659 0.767159 230.765 0.767159C229.811 0.767159 228.672 1.14242 227.817 1.56862L228.018 2.64398C228.939 2.09849 229.777 1.79081 230.833 1.79081C231.989 1.79081 232.893 2.67828 232.893 3.9405C232.893 5.3906 231.486 7.16477 230.079 8.75182L227.399 11.7718V12.7955ZM236.713 12.7955H243.733V11.7718H238.138L240.249 9.4171C241.756 7.72869 243.465 5.66373 243.465 3.88956C243.465 1.73987 241.974 0.767159 240.081 0.767159C239.126 0.767159 237.987 1.14242 237.132 1.56862L237.333 2.64398C238.255 2.09849 239.092 1.79081 240.148 1.79081C241.304 1.79081 242.209 2.67828 242.209 3.9405C242.209 5.3906 240.802 7.16477 239.394 8.75182L236.713 11.7718V12.7955ZM251.155 9.0252H246.632L251.122 2.06368H251.155V9.0252ZM245.576 10.0483H251.155V12.7955H252.311V10.0483H254.037V9.0252H252.311V0.886702H250.837L245.576 8.88826V10.0483ZM259.163 1.79081C261.593 1.79081 261.844 4.86175 261.844 6.84122C261.844 8.82068 261.593 11.8914 259.163 11.8914C256.733 11.8914 256.483 8.82017 256.483 6.84122C256.483 4.86227 256.734 1.79081 259.163 1.79081ZM259.163 0.767159C256.047 0.767159 255.327 4.06029 255.327 6.84122C255.327 9.33161 255.829 12.9148 259.163 12.9148C262.497 12.9148 263 9.33161 263 6.84122C263 4.06029 262.279 0.767159 259.163 0.767159Z" fill="#00488C"/>
<path d="M173.207 56.4903C174.276 56.8304 175.673 57 176.794 57C179.467 57 182.088 56.1666 182.088 53.0887C182.088 48.8026 176.397 50.0951 176.397 48.1733C176.397 47.1358 177.742 47.0679 178.553 47.0679C179.467 47.0679 180.398 47.238 181.226 47.6122L181.433 45.163C180.622 44.891 179.484 44.721 178.329 44.721C175.915 44.721 173.086 45.5032 173.086 48.3603C173.086 52.6807 178.777 51.286 178.777 53.4965C178.777 54.4489 177.811 54.653 176.794 54.653C175.466 54.653 174.311 54.3129 173.483 53.8706L173.207 56.4903ZM183.985 56.7959H192.158V54.4489H187.192V44.9249H183.985V56.7959ZM193.124 50.8608C193.124 54.6359 195.228 57 199.16 57C203.091 57 205.195 54.6359 205.195 50.8608C205.195 47.0508 203.126 44.721 199.16 44.721C195.194 44.721 193.124 47.0508 193.124 50.8608ZM196.435 50.8608C196.435 48.8026 197.211 47.0679 199.16 47.0679C201.108 47.0679 201.884 48.8026 201.884 50.8608C201.884 52.8163 201.108 54.653 199.16 54.653C197.211 54.653 196.435 52.8163 196.435 50.8608ZM210.075 56.7959H214.042L218.146 44.9249H214.852L212.162 54.2448H212.128L209.455 44.9249H206.04L210.075 56.7959ZM219.353 56.7959H228.026V54.5509H222.56V51.8638H227.544V49.619H222.56V47.1699H227.837V44.9249H219.353V56.7959ZM230.027 56.7959H232.975L232.872 48.6835H232.907L237.114 56.7959H241.097V44.9249H238.166L238.218 52.9868H238.183L234.114 44.9249H230.027V56.7959ZM243.15 56.4903C244.219 56.8304 245.616 57 246.737 57C249.409 57 252.031 56.1666 252.031 53.0887C252.031 48.8026 246.34 50.0951 246.34 48.1733C246.34 47.1358 247.685 47.0679 248.496 47.0679C249.409 47.0679 250.341 47.238 251.168 47.6122L251.375 45.163C250.565 44.891 249.427 44.721 248.271 44.721C245.858 44.721 243.029 45.5032 243.029 48.3603C243.029 52.6807 248.72 51.286 248.72 53.4965C248.72 54.4489 247.754 54.653 246.737 54.653C245.409 54.653 244.254 54.3129 243.426 53.8706L243.15 56.4903ZM253.927 56.7959H257.135V51.4051H257.169L260.911 56.7959H264.998L260.205 50.4528L264.653 44.9249H260.791L257.169 49.7719H257.135V44.9249H253.927V56.7959ZM265.929 50.8608C265.929 54.6359 268.033 57 271.964 57C275.896 57 278 54.6359 278 50.8608C278 47.0508 275.931 44.721 271.964 44.721C267.998 44.721 265.929 47.0508 265.929 50.8608ZM269.24 50.8608C269.24 48.8026 270.016 47.0679 271.964 47.0679C273.913 47.0679 274.689 48.8026 274.689 50.8608C274.689 52.8163 273.913 54.653 271.964 54.653C270.016 54.653 269.24 52.8163 269.24 50.8608ZM183.329 33.6324C182.45 33.9725 181.381 34.2445 180.329 34.2445C177.984 34.2445 176.311 32.8331 176.311 30.503C176.311 28.2925 177.794 26.6599 180.07 26.6599C181.174 26.6599 182.174 26.9321 183.209 27.4932L183.468 24.9252C182.312 24.5851 181.122 24.3129 179.898 24.3129C175.932 24.3129 173 26.3709 173 30.503C173 34.9928 176.707 36.5914 179.916 36.5914C181.553 36.5914 182.571 36.3364 183.485 36.1153L183.329 33.6324ZM183.226 22H181.174L179.795 22.901L178.484 22H176.432L178.311 23.8368H181.277L183.226 22ZM184.865 36.3876H193.538V34.1425H188.072V31.4555H193.056V29.2109H188.072V26.762H193.348V24.517H184.865V36.3876ZM195.245 36.0813C196.314 36.4214 197.711 36.5914 198.832 36.5914C201.504 36.5914 204.126 35.7583 204.126 32.6799C204.126 28.3947 198.435 29.6868 198.435 27.7654C198.435 26.7275 199.78 26.6599 200.591 26.6599C201.504 26.6599 202.436 26.8301 203.264 27.2036L203.47 24.7552C202.66 24.4832 201.522 24.3129 200.366 24.3129C197.952 24.3129 195.124 25.0953 195.124 27.9524C195.124 32.2717 200.815 30.8772 200.815 33.0882C200.815 34.0406 199.849 34.2445 198.832 34.2445C197.504 34.2445 196.348 33.9044 195.521 33.4623L195.245 36.0813ZM206.023 36.3876H209.23V30.9963H209.264L213.006 36.3876H217.094L212.299 30.0438L216.748 24.517H212.886L209.264 29.3636H209.23V24.517H206.023V36.3876ZM218.025 30.4521C218.025 34.2276 220.128 36.5914 224.06 36.5914C227.992 36.5914 230.096 34.2276 230.096 30.4521C230.096 26.6429 228.026 24.3129 224.06 24.3129C220.094 24.3129 218.025 26.6429 218.025 30.4521ZM221.336 30.4521C221.336 28.3947 222.111 26.6599 224.06 26.6599C226.009 26.6599 226.785 28.3947 226.785 30.4521C226.785 32.4079 226.009 34.2445 224.06 34.2445C222.111 34.2445 221.336 32.4079 221.336 30.4521Z" fill="#00488C"/>
<mask id="mask0_402_303" style="mask-type:luminance" maskUnits="userSpaceOnUse" x="0" y="1" width="150" height="57">
<path d="M0 1H150V57.3625H0V1Z" fill="white"/>
</mask>
<g mask="url(#mask0_402_303)">
<path d="M70.456 22.2433C68.8415 22.3405 67.253 23.263 66.2631 23.9643V22.97C66.2631 22.635 65.991 22.3656 65.6544 22.3656H63.2142C62.8798 22.3656 62.6077 22.635 62.6077 22.97V37.7492C62.6076 37.9102 62.6715 38.0646 62.7852 38.1786C62.8989 38.2925 63.0532 38.3566 63.2142 38.3568H65.6544C65.7343 38.357 65.8134 38.3414 65.8873 38.311C65.9611 38.2805 66.0283 38.2358 66.0848 38.1793C66.1414 38.1229 66.1862 38.0558 66.2168 37.982C66.2474 37.9082 66.2631 37.8291 66.2631 37.7492V27.5362C66.8142 27.0765 68.5178 25.7971 70.5486 25.6191C70.8595 25.5905 71.1008 25.3291 71.1008 25.0142V22.8478C71.1015 22.7651 71.0849 22.6833 71.0521 22.6075C71.0192 22.5317 70.9708 22.4636 70.91 22.4076C70.7888 22.2904 70.6222 22.2275 70.456 22.2433ZM51.4178 31.4311C49.984 31.5651 49.3022 32.2212 49.3022 33.4827C49.3022 34.26 49.516 35.5702 50.9386 35.5702C52.6264 35.5702 54.9204 34.9326 54.9434 34.9265V31.243L51.4178 31.4311ZM58.5978 27.3941V37.9983C58.5978 38.1757 58.521 38.3429 58.3896 38.4574C58.2553 38.5736 58.0782 38.6247 57.9075 38.5992C56.6663 38.4253 56.0752 38.0376 55.4885 37.5865C55.4636 37.5975 52.7173 38.706 50.2657 38.706C47.3113 38.706 45.6177 36.8416 45.6177 33.583C45.6177 30.4007 47.1676 28.9928 50.9715 28.7094L54.9434 28.3908V27.4254C54.9434 26.2056 54.2192 25.5046 52.9571 25.5046C51.2158 25.5046 48.7331 25.708 47.41 25.8268C47.3276 25.8353 47.2443 25.8267 47.1653 25.8014C47.0864 25.7761 47.0136 25.7347 46.9514 25.6799C46.8292 25.5736 46.7524 25.4139 46.7462 25.2494L46.6665 23.2226C46.6542 22.9133 46.8746 22.6439 47.1765 22.5984C48.3607 22.4095 51.3084 21.9801 53.1495 21.9801C56.8677 21.9801 58.5978 23.7029 58.5978 27.3941ZM7.85858 19.7697H6.52186C5.02914 19.7697 4.17911 19.8808 3.7486 19.9683V26.2864C4.46245 26.334 5.83396 26.4076 7.68012 26.3873C10.0627 26.3621 11.5407 25.0974 11.5407 23.0902C11.5407 21.4856 10.5735 19.7697 7.85858 19.7697ZM15.5424 37.5039C15.6256 37.6914 15.6063 37.9073 15.4969 38.0796C15.3832 38.2536 15.1935 38.3568 14.9869 38.3568H12.1513C11.9134 38.3568 11.6924 38.2142 11.5991 37.9948L7.96855 29.8257C6.16333 29.8131 4.59596 29.7173 3.7486 29.6579V37.7492C3.74899 37.8289 3.73361 37.9079 3.70335 37.9817C3.67308 38.0555 3.62853 38.1225 3.57225 38.179C3.51598 38.2354 3.4491 38.2802 3.37545 38.3108C3.3018 38.3413 3.22284 38.3569 3.14312 38.3568H0.608257C0.528317 38.3571 0.449114 38.3415 0.375192 38.3111C0.30127 38.2807 0.234082 38.236 0.177482 38.1795C0.120881 38.1231 0.0759813 38.056 0.0453573 37.9821C0.0147333 37.9083 -0.0010121 37.8291 -0.000976502 37.7492V17.2603C-0.000976502 16.9499 0.232336 16.6901 0.541099 16.6554C3.79302 16.2899 6.39503 16.25 7.35905 16.25L7.87143 16.2529C14.1088 16.2529 15.4206 19.9375 15.4206 23.0249C15.4206 25.6028 14.1882 27.4666 11.6569 28.7217L15.5424 37.5039ZM86.7054 22.6003C86.649 22.5266 86.5762 22.4671 86.4929 22.4264C86.4096 22.3857 86.3179 22.3649 86.2252 22.3656H83.8564C83.7228 22.3658 83.5929 22.4099 83.4868 22.4911C83.3806 22.5723 83.3041 22.6862 83.2689 22.8151L80.0906 34.798H79.8481L76.6669 22.8151C76.6321 22.6861 76.5558 22.5721 76.4497 22.4908C76.3436 22.4096 76.2137 22.3655 76.0801 22.3656H73.7119C73.6196 22.3662 73.5286 22.3877 73.4458 22.4286C73.363 22.4695 73.2906 22.5286 73.2339 22.6015C73.1773 22.6745 73.138 22.7593 73.1189 22.8496C73.0998 22.94 73.1015 23.0335 73.1238 23.1231L76.6227 36.5618C76.7966 37.2261 77.4139 38.3568 78.6331 38.3568H79.3111C79.2533 38.5808 79.1905 38.8202 79.1231 39.0268L79.0923 39.1285C78.9026 39.7484 78.6158 40.6846 76.8876 40.6846L73.8602 40.5C73.7758 40.4931 73.6909 40.5049 73.6116 40.5344C73.5322 40.564 73.4604 40.6106 73.401 40.671C73.2758 40.7935 73.2068 40.9607 73.2164 41.1322L73.2911 42.7189C73.3023 42.9848 73.4896 43.212 73.7534 43.2775C74.6457 43.4983 76.3493 43.7575 77.7505 43.8108C77.8179 43.8148 77.8786 43.8148 77.9431 43.8148C80.227 43.8148 81.7756 42.337 82.5569 39.4281L86.8138 23.1265C86.8619 22.9435 86.8183 22.7506 86.7054 22.6003ZM28.4435 30.2814C28.4435 26.7038 27.4715 25.3133 24.9816 25.3133C22.4015 25.3133 21.4873 26.6136 21.4873 30.2814C21.4873 33.6066 22.043 35.4057 24.9816 35.4057C27.875 35.4057 28.4435 33.5271 28.4435 30.2814ZM32.1594 30.2814C32.1594 36.1072 29.9456 38.706 24.9816 38.706C19.9951 38.706 17.7703 36.1072 17.7703 30.2814C17.7703 24.5401 19.9951 21.9801 24.9816 21.9801C29.8782 21.9801 32.1594 24.6152 32.1594 30.2814ZM43.6907 35.7594L43.795 37.7693C43.802 37.9152 43.7561 38.0587 43.6659 38.1736C43.5756 38.2884 43.447 38.3669 43.3035 38.3946C42.4532 38.5522 41.2837 38.7435 40.5525 38.7435C36.8687 38.7435 35.7463 37.3334 35.7463 32.7172V25.6662H34.3339C34.1725 25.6659 34.0178 25.6017 33.9037 25.4876C33.7895 25.3736 33.7253 25.2189 33.7249 25.0575V22.97C33.7249 22.635 33.9973 22.3656 34.3339 22.3656H35.7463V19.8853C35.7463 19.6036 35.9371 19.3596 36.2076 19.2943L38.6485 18.699C38.8289 18.6564 39.0183 18.6955 39.1655 18.8113C39.3126 18.9272 39.4006 19.1008 39.4006 19.2887V22.3656H43.1189C43.4555 22.3656 43.7244 22.635 43.7244 22.97V25.0575C43.7244 25.392 43.4555 25.6662 43.1189 25.6662H39.4006V32.2027C39.4006 34.4646 39.4804 35.2491 41.0662 35.2491C41.6519 35.2491 42.5661 35.2071 43.0576 35.1836C43.3849 35.175 43.676 35.4225 43.6907 35.7594Z" fill="#00488C"/>
<path d="M111.293 10.9141L111.39 11.0803L111.751 11.7015L112.496 11.3104C112.565 11.2761 112.605 11.1881 112.618 11.0803C112.632 10.7453 112.389 10.2902 112.037 10.501L111.293 10.9141ZM110.515 11.0803L110.318 10.7279C110.836 10.4007 111.39 10.1163 111.927 9.82944C112.558 9.47974 113.448 10.3239 113.385 11.0803C113.374 11.2154 113.337 11.3355 113.257 11.4573L114.547 12.3972L113.83 12.7341L112.699 11.9084L112.076 12.2418L112.74 13.3395L112.028 13.7794L110.515 11.0803ZM127.568 46.4573L128.742 49.8125L129.448 49.5615L128.309 46.2221L127.568 46.4573ZM122.871 49.6228L122.595 48.9448L122.317 48.2119L121.838 49.6682L122.871 49.6228ZM123.334 48.9448L124.103 50.8096L123.394 50.8707L123.156 50.2676L121.62 50.3117L121.444 50.9408L120.725 50.9121L121.388 48.9448L121.86 47.4526L121.883 47.4044L122.666 47.3696L122.707 47.4638L123.334 48.9448ZM127.193 9.73686L127.986 9.99318C128.204 10.0545 128.49 9.71492 128.49 9.41927C128.49 9.27773 128.442 9.15278 128.252 9.11104C127.96 8.99786 127.757 8.94676 127.438 8.86702L127.274 9.41927L127.193 9.73686ZM126.705 11.5908L125.897 11.3837L126.474 9.41927L126.895 8.01806C127.504 8.16789 128.081 8.36535 128.659 8.55344C128.987 8.65378 129.162 9.02408 129.195 9.41927C129.217 9.95465 128.951 10.5358 128.41 10.657L128.62 12.2418L127.898 11.9472L127.714 10.5634L127.036 10.3552L126.705 11.5908ZM115.91 47.2586C115.89 47.1599 115.849 47.0801 115.727 47.0239L114.838 46.6962L114.636 47.2586L114.565 47.4638L114.559 47.478L115.37 47.7809C115.592 47.8799 115.807 47.6811 115.885 47.4638C115.91 47.4044 115.934 47.3303 115.91 47.2586ZM116.577 47.2586V47.4526C116.523 47.9259 116.202 48.4062 115.681 48.4672L115.802 50.1188C115.561 50.0637 115.287 49.984 115.03 49.8748L115.003 48.3203L114.304 48.0206L113.737 49.3927L113.055 49.1339L113.773 47.4638L113.859 47.2586L114.444 45.8809L116.034 46.4947C116.388 46.6215 116.551 46.9359 116.577 47.2586ZM126.727 46.7575C125.694 46.983 124.899 47.1711 123.874 47.3303L123.969 47.9259C124.347 47.8662 124.695 47.8207 125.094 47.7704L125.611 50.6355L126.372 50.4931L125.755 47.6345L126.895 47.3477L126.727 46.7575ZM130.607 13.2296L131.374 11.7524L133.446 10.7889C133.228 10.6324 132.993 10.523 132.774 10.3803L131.347 11.0297L131.084 9.47974C130.786 9.339 130.607 9.27773 130.297 9.15278L130.712 11.404L129.943 12.8652L130.607 13.2296ZM138.374 14.1329C138.048 13.7339 137.505 13.7933 137.35 14.0719L134.939 16.4943C134.585 16.8617 134.619 17.4006 134.986 17.662C138.624 21.689 140.145 26.7033 138.952 32.9126C138.925 33.3201 139.182 33.6465 139.5 33.738L142.833 34.7039C143.276 34.8307 143.561 34.5613 143.655 34.1808C145.371 26.5372 143.022 19.0222 138.374 14.1329ZM142.23 36.4856L138.894 35.3474C138.72 35.2818 138.264 35.2818 138.025 35.8689C135.332 42.3299 129.059 46.7513 121.797 46.7513C114.525 46.7513 108.138 42.2282 105.56 35.7683C105.502 35.6031 105.383 35.4669 105.226 35.3884C105.07 35.3099 104.889 35.2952 104.722 35.3474L101.404 36.4856C101.045 36.6156 100.827 36.9351 101.017 37.3969C104.276 45.7132 112.38 51.5845 121.797 51.5845C131.213 51.5845 139.354 45.6728 142.623 37.3608C142.792 36.9255 142.587 36.6156 142.23 36.4856ZM100.86 34.7039L104.187 33.738C104.5 33.6465 104.757 33.3201 104.732 32.9126C103.537 26.7146 105.054 21.689 108.688 17.662C109.056 17.4006 109.095 16.8617 108.744 16.4943L106.324 14.0628C106.089 13.7933 105.662 13.7933 105.296 14.1676C100.658 19.0474 98.3176 26.5372 100.035 34.1937C100.13 34.5613 100.42 34.8307 100.86 34.7039ZM134.246 19.2085C134.255 19.0616 134.164 18.8735 133.955 18.6688C131.293 15.8506 128.556 14.2739 124.803 13.3816C124.591 13.3283 124.347 13.2783 124.185 13.423C124.017 13.5571 123.969 13.8169 124.003 14.2054L124.621 22.8882C124.64 23.217 124.789 23.4768 125.008 23.6098C125.249 23.746 125.537 23.7209 125.836 23.5772L133.655 19.8022C133.906 19.6815 134.192 19.5485 134.246 19.281C134.246 19.2652 134.255 19.2432 134.246 19.2085ZM135.827 34.7291C136.06 34.8794 136.328 35.0624 136.573 34.9765C136.739 34.926 136.882 34.7443 136.974 34.416C138.069 30.705 138.069 27.5349 136.974 23.8677C136.907 23.6379 136.799 23.3998 136.606 23.3139C136.412 23.2433 136.167 23.3235 135.816 23.5614L128.644 28.4379C128.366 28.6242 128.226 28.8797 128.226 29.1427C128.226 29.4044 128.366 29.658 128.644 29.8407L135.827 34.7291ZM124.164 44.8193C124.296 44.9225 124.514 44.9538 124.847 44.8709C128.578 43.9751 131.313 42.3944 133.979 39.5965C134.139 39.4119 134.312 39.2222 134.261 39.0124C134.213 38.8104 134.04 38.6274 133.677 38.4567L125.855 34.6616C125.559 34.5209 125.271 34.5209 125.032 34.6461C124.803 34.7914 124.662 35.037 124.64 35.38L124.009 44.038C124.003 44.3213 123.969 44.6459 124.164 44.8193ZM121.797 34.7914C124.886 34.7914 127.396 32.2846 127.396 29.1959C127.396 26.1072 124.886 23.5991 121.797 23.5879C118.709 23.5879 116.202 26.1086 116.202 29.1959C116.202 32.2833 118.709 34.7914 121.797 34.7914ZM109.496 39.1566C109.496 39.3054 109.596 39.49 109.786 39.6875C112.476 42.5145 115.198 44.0896 118.938 44.9667C119.178 45.0403 119.412 45.0761 119.579 44.9461C119.746 44.8193 119.795 44.5595 119.767 44.1509C119.767 44.1367 119.131 35.4691 119.131 35.4691C119.104 35.1403 118.979 34.8901 118.749 34.7571C118.515 34.6207 118.226 34.6207 117.915 34.7633L110.113 38.56C109.84 38.6868 109.546 38.8294 109.505 39.0841C109.505 39.1015 109.496 39.1347 109.496 39.1566ZM109.383 19.3484C109.416 19.6098 109.714 19.7428 109.973 19.8645L117.783 23.6585C118.093 23.8073 118.381 23.8073 118.617 23.6831C118.836 23.5408 118.979 23.2904 118.999 22.9583L119.63 14.2945C119.665 13.8765 119.605 13.6307 119.455 13.5022C119.289 13.3612 119.044 13.4011 118.809 13.4444C115.068 14.3445 112.339 15.9258 109.651 18.7298C109.434 18.9741 109.333 19.1806 109.383 19.3484ZM107.815 23.6192C107.559 23.4549 107.288 23.2652 107.066 23.3639C106.884 23.4191 106.753 23.6098 106.657 23.9167C105.572 27.6427 105.572 30.801 106.657 34.477C106.731 34.7162 106.814 34.9541 107.032 35.0153C107.21 35.0887 107.473 35.0153 107.815 34.7791L114.98 29.8975C115.247 29.7174 115.409 29.4638 115.409 29.2085C115.409 28.93 115.247 28.687 114.98 28.4992L107.815 23.6192ZM107.658 12.7755L109.973 15.3545C110.296 15.7018 110.653 15.6593 111.121 15.2941C114.046 12.9995 117.798 11.6419 121.797 11.6419C125.8 11.6419 129.556 12.9939 132.509 15.2941C132.971 15.6347 133.317 15.7018 133.655 15.3545L135.972 12.7755C136.234 12.4909 136.234 12.0975 135.733 11.6767C131.85 8.65378 127.056 6.78862 121.787 6.78862C116.551 6.78862 111.689 8.65378 107.875 11.6908C107.377 12.0975 107.399 12.4909 107.658 12.7755ZM150 29.2179C150 29.5467 149.984 29.8755 149.949 30.1383L149.939 30.2105L149.863 30.2493C148.665 30.9621 147.116 31.3688 145.563 31.4116C145.526 31.6069 145.358 33.0097 145.329 33.2072C146.777 33.6246 148.181 34.416 149.16 35.4271L149.199 35.49V35.5539C149.122 36.1067 148.926 36.8473 148.71 37.3279L148.685 37.4046L148.615 37.4154C147.257 37.8052 145.657 37.7913 144.178 37.4247L143.505 39.1015C144.802 39.9221 145.949 41.0477 146.593 42.2501L146.628 42.3176L146.606 42.3877C146.405 42.8669 146.025 43.5588 145.686 43.9751L145.649 44.038H145.563C144.178 44.0538 142.631 43.6436 141.28 42.8904L140.132 44.4045C141.197 45.5005 142.003 46.8904 142.33 48.2609L142.352 48.3326L142.314 48.3807C142.003 48.8005 141.435 49.3568 141.023 49.6899L140.975 49.7322L140.872 49.7118C139.539 49.3568 138.129 48.5504 137.035 47.4919C136.872 47.6136 135.755 48.4875 135.589 48.6114C136.304 49.9235 136.739 51.4307 136.739 52.7949V52.9841L136.655 53.0312C136.243 53.3627 135.557 53.76 135.069 53.9594L135.019 53.9813L134.939 53.9548C133.738 53.2551 132.589 52.1153 131.803 50.8096L130.067 51.5564C130.254 52.2899 130.36 53.0417 130.383 53.7983C130.383 54.5576 130.251 55.3186 130.067 56.004L130.056 56.0731L129.984 56.1124C129.528 56.3016 128.759 56.4923 128.226 56.5849L128.143 56.5972L128.097 56.5394C127.062 55.5564 126.272 54.1584 125.855 52.6978C125.672 52.712 124.262 52.9028 124.062 52.9437C124.039 54.476 123.618 56.0295 122.888 57.2327L122.849 57.2961L122.766 57.3065C122.278 57.3817 121.493 57.3817 120.96 57.3065L120.894 57.2961L120.847 57.2327C120.141 56.0295 119.718 54.476 119.684 52.9437C119.474 52.9228 117.987 52.712 117.783 52.6978C117.375 54.1491 116.577 55.539 115.57 56.5333L115.517 56.5849L115.434 56.5726C114.884 56.4923 114.16 56.2796 113.673 56.0776L113.615 56.0495L113.59 55.9885C113.385 55.3038 113.28 54.5373 113.28 53.7763C113.28 53.0312 113.385 52.2842 113.574 51.5564L111.915 50.8707C111.121 52.1996 109.973 53.3539 108.762 54.0268L108.697 54.0626L108.621 54.0423C108.119 53.8184 107.459 53.4398 107.032 53.1187L106.98 53.067V52.9228C106.98 51.542 107.399 50.0233 108.119 48.6957C107.96 48.5704 106.761 47.661 106.596 47.5374C105.499 48.5959 104.101 49.3927 102.75 49.7399L102.681 49.7603L102.607 49.7118C102.194 49.3803 101.663 48.8433 101.328 48.4219L101.283 48.3478L101.303 48.2764C101.663 46.914 102.471 45.524 103.523 44.4433C103.402 44.2799 102.496 43.105 102.368 42.9282C101.031 43.6778 99.4698 44.11 98.0825 44.0757H98.0092L97.9618 44.0286C97.638 43.5997 97.2498 42.914 97.0417 42.4286L97.0101 42.3569L97.0417 42.2916C97.7397 41.0697 98.8793 39.9422 100.181 39.1628L99.4478 37.464C97.9679 37.8333 96.3586 37.8429 95.0063 37.464L94.9405 37.444L94.8996 37.3827C94.7168 36.9255 94.5159 36.1584 94.4332 35.6168L94.4188 35.532L94.4675 35.4691C95.4524 34.4658 96.8362 33.6706 98.3176 33.2318C98.3019 33.0255 98.0825 31.5333 98.0624 31.3268C96.5151 31.3064 94.9624 30.907 93.7539 30.1888L93.6926 30.1476L93.6865 30.0647C93.6533 29.8145 93.6426 29.4857 93.6426 29.1534C93.6426 28.8296 93.6533 28.512 93.6865 28.241L93.6926 28.1578L93.7539 28.1235C94.9624 27.411 96.5151 26.999 98.0624 26.976C98.0937 26.7724 98.2767 25.3211 98.3019 25.1255C96.8362 24.7057 95.4384 23.9044 94.4458 22.9037L94.4046 22.855L94.4188 22.7769C94.4833 22.2198 94.693 21.4728 94.8996 21.011L94.9231 20.9436L94.9951 20.923C96.3324 20.5283 97.9495 20.5396 99.4355 20.9043C99.5179 20.7226 100.06 19.4156 100.141 19.2181C98.8295 18.4245 97.6784 17.2957 96.9927 16.0761L96.9584 15.9994L96.9927 15.9258C97.2089 15.4364 97.5955 14.7731 97.8997 14.3568L97.9495 14.2945H98.0327C99.4355 14.2739 100.982 14.703 102.318 15.4431C102.441 15.2941 103.352 14.0628 103.476 13.8985C102.418 12.7951 101.616 11.4123 101.27 10.0421L101.255 9.98435L101.283 9.92308C101.622 9.499 102.185 8.94676 102.595 8.62167L102.66 8.58127L102.723 8.59385C104.101 8.94676 105.491 9.76709 106.573 10.8194C106.731 10.6937 107.815 9.85967 107.976 9.73686C107.231 8.43331 106.814 6.9109 106.814 5.55945V5.35691L106.883 5.30982C107.288 4.99116 107.976 4.59731 108.466 4.39851L108.519 4.36534L108.6 4.40012C109.807 5.08373 110.942 6.22514 111.737 7.53431C111.927 7.46234 113.337 6.84963 113.529 6.77337C113.346 6.0432 113.23 5.28975 113.243 4.54112C113.243 3.76226 113.337 3.02085 113.541 2.3375L113.551 2.25322L113.624 2.23423C114.078 2.04346 114.838 1.84011 115.37 1.75717L115.456 1.74646L115.517 1.80051C116.523 2.77737 117.324 4.17805 117.746 5.6539C117.954 5.63303 119.435 5.44681 119.632 5.41096C119.665 3.89069 120.079 2.3375 120.806 1.13027L120.837 1.06874L120.914 1.04733C121.444 0.985525 122.225 0.985525 122.74 1.04733L122.807 1.06874L122.849 1.13027C123.58 2.3375 124.003 3.89069 124.003 5.39678C124.225 5.44681 125.672 5.63303 125.879 5.6539C126.311 4.17805 127.106 2.78861 128.117 1.8072L128.164 1.75717L128.23 1.7775C128.841 1.85754 129.438 2.01748 130.007 2.25322L130.067 2.27677L130.09 2.35918C130.297 3.0361 130.397 3.77349 130.397 4.54112C130.383 5.29644 130.273 6.05792 130.09 6.78862L131.877 7.53431C132.657 6.22514 133.777 5.09149 134.998 4.40012L135.069 4.36534L135.142 4.39851C135.625 4.60346 136.301 4.99116 136.718 5.31892L136.779 5.35691V5.54608C136.779 6.93284 136.349 8.44669 135.625 9.73686L137.117 10.9018C138.213 9.83719 139.603 9.02408 140.975 8.68856L141.036 8.65378L141.096 8.71773C141.509 9.02408 142.064 9.60388 142.38 10.0186L142.438 10.0801L142.413 10.1505C142.064 11.5207 141.239 12.9117 140.187 13.9999C140.309 14.1676 141.184 15.3203 141.319 15.4859C142.683 14.7512 144.223 14.3322 145.621 14.3568H145.686L145.731 14.4202C146.07 14.8534 146.459 15.5252 146.649 15.9871L146.695 16.0761L146.649 16.1436C145.955 17.3535 144.814 18.4729 143.505 19.2732L144.219 20.9685C145.686 20.5992 147.299 20.5896 148.636 20.9685L148.716 20.984L148.746 21.061C148.932 21.5261 149.15 22.2803 149.221 22.8347L149.234 22.9037L149.179 22.9583C148.197 23.9745 146.799 24.7713 145.329 25.1865L145.576 27.026C147.123 27.0587 148.665 27.4739 149.863 28.1832L149.939 28.2287L149.949 28.3004C149.984 28.5618 150 28.8797 150 29.2179ZM134.213 42.5145L135.679 44.0977L133.217 43.371C133.012 43.5264 132.874 43.5807 132.692 43.7389L134.837 46.6215C135.019 46.4792 135.21 46.305 135.38 46.1592L134.08 44.4265L136.567 45.1748C136.739 45.0263 136.982 44.8586 137.151 44.6486L134.668 42.023C134.536 42.1672 134.383 42.3569 134.213 42.5145ZM132.509 46.731C132.509 46.5177 132.454 46.3288 132.354 46.1453C132.06 45.5992 131.361 45.4218 130.818 45.7338C130.436 45.9387 130.241 46.3288 130.241 46.731C130.251 46.914 130.297 47.1211 130.405 47.2945C130.436 47.3477 130.472 47.4044 130.528 47.4638C130.868 47.8724 131.47 47.9663 131.933 47.6969C132.06 47.6345 132.162 47.5526 132.243 47.4638C132.412 47.2586 132.509 46.983 132.509 46.731ZM132.909 45.8478C133.059 46.1126 133.132 46.4179 133.145 46.731C133.145 46.9753 133.093 47.2254 132.993 47.4526C132.827 47.7809 132.582 48.0757 132.243 48.2713C131.415 48.7551 130.342 48.4672 129.84 47.6136C129.823 47.5655 129.799 47.5122 129.767 47.4526C129.664 47.2254 129.616 46.9753 129.595 46.731C129.616 46.103 129.923 45.524 130.485 45.1979C131.327 44.7205 132.412 45.0071 132.909 45.8478ZM136.616 41.1323L137.035 41.7929L137.417 42.4602L137.934 41.7929L138.069 41.6267L136.616 41.1323ZM136.215 40.3243L139.744 41.4831C139.661 41.5879 139.595 41.688 139.52 41.7929C139.459 41.8726 139.387 41.9529 139.337 42.0562L138.72 41.8333L137.757 43.0376L138.107 43.5885C137.964 43.7514 137.802 43.9304 137.619 44.11L135.705 40.9399L136.215 40.3243ZM140.123 39.8014L137.532 38.3754L137.2 38.972L140.309 40.7082L141.509 38.56L140.975 38.2734L140.123 39.8014ZM119.63 47.2945L119.372 49.452L118.335 47.0847C118.093 47.0381 117.941 46.9753 117.697 46.9359L116.882 50.4257C117.135 50.4931 117.375 50.5199 117.635 50.5638L118.071 48.4219L119.121 50.8096C119.359 50.8455 119.63 50.9207 119.908 50.9121L120.297 47.3084C120.092 47.2979 119.849 47.3303 119.63 47.2945ZM119.51 8.16227L119.821 11.0527L120.58 10.9719L120.283 8.10448L121.432 8.03197L121.388 7.38849C120.106 7.46234 119.579 7.51344 118.309 7.70314L118.394 8.31585L119.51 8.16227ZM123.026 9.73686C123.412 9.75532 123.77 9.79786 124.13 9.8495L123.941 9.11104L123.703 8.3501L123.344 9.11104L123.026 9.73686ZM122.439 10.9393L121.716 10.9361L123.394 7.45244L124.185 7.53431L124.601 9.11104L125.176 11.229C124.91 11.1806 124.703 11.1397 124.451 11.1258L124.247 10.4601C123.725 10.3803 123.252 10.3552 122.766 10.3333L122.439 10.9393ZM115.09 10.0657C115.137 10.6937 115.695 11.152 116.299 11.1003C116.896 11.0399 117.341 10.5634 117.341 9.96295C117.363 9.93271 117.341 9.89793 117.341 9.85967C117.29 9.22662 116.747 8.78408 116.117 8.84348C115.517 8.88896 115.068 9.36094 115.09 9.96295V10.0657ZM114.444 10.1286V9.96295C114.424 9.0495 115.124 8.29632 116.045 8.22328C116.276 8.20059 116.51 8.22409 116.732 8.29241C116.954 8.36073 117.16 8.4725 117.338 8.62123C117.517 8.76996 117.664 8.95268 117.771 9.15877C117.878 9.36485 117.943 9.59019 117.963 9.82168V9.96295C117.963 10.8753 117.273 11.6547 116.339 11.7411C115.394 11.8244 114.525 11.1116 114.444 10.1286ZM121.86 32.576C123.703 32.576 125.218 31.0624 125.218 29.2179C125.218 27.6847 124.152 26.3526 122.685 25.9863C122.666 25.8359 122.625 25.136 122.625 25.136H120.933L120.88 26.0473C120.198 26.2521 119.601 26.6713 119.178 27.2425C118.754 27.8137 118.525 28.5065 118.527 29.2179C118.527 31.0624 120.039 32.576 121.86 32.576ZM121.797 34.2448C119.021 34.2448 116.752 31.967 116.752 29.1959C116.752 26.4061 119.021 24.1388 121.797 24.1388C124.591 24.1388 126.84 26.4061 126.84 29.1959C126.84 31.9793 124.58 34.2448 121.797 34.2448ZM111.858 45.2391C112.339 45.5005 112.811 45.7726 113.337 46.0235L113.651 45.5005C112.923 45.1245 112.241 44.694 111.627 44.2681L109.618 47.2182C110.379 47.722 111.076 48.1445 111.858 48.5959L112.183 48.0757L110.562 47.1211L111.11 46.3524L112.183 46.9969L112.496 46.4947C112.151 46.305 111.791 46.0875 111.415 45.8574L111.858 45.2391ZM107.841 40.8647L106.19 42.2916L107.032 39.8451C106.883 39.6358 106.814 39.49 106.657 39.2974L103.697 41.3059C103.83 41.505 103.991 41.688 104.132 41.8932L105.912 40.6611L105.078 43.1251C105.221 43.2883 105.368 43.5368 105.572 43.703L108.311 41.3546C108.159 41.193 107.976 41.0477 107.841 40.8647ZM105.884 38.0214L102.836 39.8014C102.946 40.0163 103.063 40.2665 103.197 40.4714L106.252 38.6868L105.884 38.0214ZM109.651 43.5684L107.772 45.798L107.187 45.2907L109.129 43.1251C108.823 42.8407 108.587 42.5835 108.289 42.3176L108.721 41.8839C109.462 42.5835 110.113 43.1251 110.93 43.7827L110.554 44.2619L109.651 43.5684Z" fill="#F6AA1C"/>
</g>
</svg>
