<svg width="36" height="36" viewBox="0 0 36 36" fill="none" xmlns="http://www.w3.org/2000/svg">
<path d="M17.9997 7.66667V34.3333M17.9997 7.66667H12.1068C11.2385 7.66667 10.4058 7.31548 9.79188 6.69036C9.17793 6.06524 8.83301 5.21739 8.83301 4.33333C8.83301 3.44928 9.17793 2.60143 9.79188 1.97631C10.4058 1.35119 11.2385 1 12.1068 1C16.6902 1 17.9997 7.66667 17.9997 7.66667ZM17.9997 7.66667H23.8925C24.7608 7.66667 25.5935 7.31548 26.2075 6.69036C26.8214 6.06524 27.1663 5.21739 27.1663 4.33333C27.1663 3.44928 26.8214 2.60143 26.2075 1.97631C25.5935 1.35119 24.7608 1 23.8925 1C19.3092 1 17.9997 7.66667 17.9997 7.66667ZM31.333 16V29C31.333 30.8668 31.333 31.8003 30.9697 32.5133C30.6501 33.1405 30.1402 33.6504 29.513 33.97C28.7999 34.3333 27.8665 34.3333 25.9997 34.3333L9.99967 34.3333C8.13283 34.3333 7.19941 34.3333 6.48637 33.97C5.85917 33.6504 5.34923 33.1405 5.02965 32.5133C4.66634 31.8003 4.66634 30.8668 4.66634 29V16M1.33301 10.3333L1.33301 13.3333C1.33301 14.2668 1.33301 14.7335 1.51466 15.09C1.67445 15.4036 1.92942 15.6586 2.24302 15.8183C2.59954 16 3.06625 16 3.99968 16L31.9997 16C32.9331 16 33.3998 16 33.7563 15.8183C34.0699 15.6586 34.3249 15.4036 34.4847 15.09C34.6663 14.7335 34.6663 14.2668 34.6663 13.3333V10.3333C34.6663 9.39991 34.6663 8.9332 34.4847 8.57668C34.3249 8.26308 34.0699 8.00811 33.7563 7.84832C33.3998 7.66667 32.9331 7.66667 31.9997 7.66667L3.99968 7.66667C3.06625 7.66667 2.59954 7.66667 2.24302 7.84832C1.92942 8.00811 1.67445 8.26308 1.51466 8.57668C1.33301 8.9332 1.33301 9.39991 1.33301 10.3333Z" stroke="#F4F3F2" stroke-width="2" stroke-linecap="round" stroke-linejoin="round"/>
</svg>
