<svg width="19" height="18" viewBox="0 0 19 18" fill="none" xmlns="http://www.w3.org/2000/svg">
<path d="M13.0504 18V11.034H15.3834L15.7324 8.326H13.0504V6.598C13.0504 5.814 13.2684 5.279 14.3924 5.279H15.8264V2.857C15.1322 2.78334 14.4345 2.74762 13.7364 2.75C11.6694 2.75 10.2544 4.012 10.2544 6.33V8.326H7.91644V11.034H10.2544V18H1.64844C1.38322 18 1.12887 17.8946 0.941331 17.7071C0.753794 17.5196 0.648438 17.2652 0.648438 17V1C0.648438 0.734784 0.753794 0.48043 0.941331 0.292893C1.12887 0.105357 1.38322 0 1.64844 0H17.6484C17.9137 0 18.168 0.105357 18.3555 0.292893C18.5431 0.48043 18.6484 0.734784 18.6484 1V17C18.6484 17.2652 18.5431 17.5196 18.3555 17.7071C18.168 17.8946 17.9137 18 17.6484 18H13.0504Z" fill="white"/>
</svg>
