<svg width="66" height="65" viewBox="0 0 66 65" fill="none" xmlns="http://www.w3.org/2000/svg">
<g clip-path="url(#clip0_402_229)">
<path d="M32.9655 0C15.0301 0.0195 0.5 14.5639 0.5 32.5C0.5 50.4491 15.0509 65 33 65C50.9491 65 65.5 50.4491 65.5 32.5C65.4891 28.4397 64.7174 24.4175 63.225 20.6414C62.3793 21.6021 61.6149 22.4276 60.7127 23.1439C61.5571 25.6416 62.0585 28.2424 62.2032 30.875H51.8844C51.876 30.6156 51.8604 30.3596 51.8487 30.1015C50.5389 30.6091 49.6302 30.0833 48.5708 29.4788C48.5993 29.9403 48.6214 30.4063 48.6383 30.875H34.625V20.0655H38.1441C37.3547 19.0181 36.6159 17.9335 35.9302 16.8155H34.625V14.5743C33.0345 11.479 33.236 7.9183 34.625 4.84185V3.6933C34.8018 3.7232 34.9773 3.76285 35.1535 3.8051C35.8663 2.52821 36.7819 1.37568 37.8646 0.3926C36.2552 0.139996 34.6291 0.0087595 33 0L32.9655 0ZM31.375 3.82135V16.8148H20.4875C21.1297 14.9799 21.872 13.286 22.7027 11.7773C25.1285 7.37165 28.1711 4.61565 31.375 3.82135ZM23.887 4.7008C22.3764 6.2296 21.0205 8.0938 19.855 10.2095C18.7631 12.192 17.8238 14.4131 17.0522 16.8148H8.3065C11.9042 11.1559 17.3902 6.82435 23.887 4.7008ZM6.5164 20.0655H16.1416C15.3323 23.4208 14.8364 27.0595 14.7096 30.8756H3.7968C3.99868 27.131 4.92214 23.4599 6.5164 20.0655ZM19.4995 20.0655H31.375V30.875H17.9636C18.1013 27.0172 18.6415 23.3649 19.4995 20.0655ZM3.7968 34.125H14.6921C14.7759 37.9314 15.2251 41.5701 15.9882 44.9345H6.5164C4.92214 41.5401 3.99868 37.8697 3.7968 34.125ZM17.9421 34.125H31.375V44.9345H19.337C18.5277 41.6195 18.0331 37.9697 17.9421 34.125ZM34.625 34.125H48.6598C48.5688 37.9697 48.0735 41.6195 47.2642 44.9345H34.625V34.125ZM51.8994 34.125H62.2032C62.0013 37.8697 61.0779 41.5401 59.4836 44.9345H50.6085C51.369 41.5694 51.8155 37.9307 51.8994 34.125ZM8.3065 48.1845H16.8449C17.6522 50.8397 18.6649 53.2805 19.855 55.4417C20.7897 57.1382 21.8492 58.6716 23.0101 60.0028C16.8956 57.7863 11.7417 53.5873 8.3065 48.1845ZM20.2626 48.1845H31.375V61.7032C31.1748 61.6922 30.9772 61.672 30.7783 61.6577C27.7948 60.6827 24.9777 58.0047 22.7027 53.874C21.7745 52.1879 20.9529 50.2742 20.2626 48.1845ZM34.625 48.1845H46.3386C45.6497 50.2749 44.8274 52.1879 43.8992 53.874C41.671 57.9202 38.9228 60.5741 36.0075 61.5979C35.5499 61.644 35.0884 61.6778 34.625 61.7032V48.1845ZM49.7537 48.1845H57.6935C54.4068 53.356 49.5809 57.3664 43.8953 59.6511C44.9379 58.4031 45.8941 56.99 46.7462 55.4417C47.9364 53.2805 48.9484 50.8391 49.7537 48.1845Z" fill="#C8C6C1"/>
<path d="M45.8883 0C47.6381 0 49.3047 0.97565 50.8023 1.85705C52.3018 0.97565 53.9684 0 55.7176 0C61.1028 0 65.5001 4.39725 65.5001 9.7825V9.8046C65.4338 14.3591 61.7652 18.5796 58.3436 21.9089C54.922 25.2369 51.5264 27.6042 51.5264 27.6042C51.2783 27.7772 50.9827 27.869 50.6803 27.867C50.3779 27.8651 50.0835 27.7694 49.8377 27.5931C49.8377 27.5931 46.6579 25.3188 43.3767 22.0389C40.0948 18.7583 36.5569 14.5164 36.1136 9.9229C36.1089 9.87646 36.1066 9.82982 36.1064 9.78315C36.1058 4.39725 40.503 0 45.8883 0Z" fill="#C8C6C1"/>
</g>
<defs>
<clipPath id="clip0_402_229">
<rect width="65" height="65" fill="white" transform="translate(0.5)"/>
</clipPath>
</defs>
</svg>
