<svg width="30" height="34" viewBox="0 0 30 34" fill="none" xmlns="http://www.w3.org/2000/svg">
<path d="M29 32.75C29 30.3078 29 29.0866 28.6986 28.093C28.0199 25.8558 26.2692 24.1051 24.032 23.4264C23.0384 23.125 21.8172 23.125 19.375 23.125H10.625C8.18277 23.125 6.96165 23.125 5.968 23.4264C3.7308 24.1051 1.98007 25.8558 1.30142 28.093C1 29.0866 1 30.3078 1 32.75M22.875 9.125C22.875 13.4742 19.3492 17 15 17C10.6508 17 7.125 13.4742 7.125 9.125C7.125 4.77576 10.6508 1.25 15 1.25C19.3492 1.25 22.875 4.77576 22.875 9.125Z" stroke="#2E2A24" stroke-width="2" stroke-linecap="round" stroke-linejoin="round"/>
</svg>
