<svg width="42" height="42" viewBox="0 0 42 42" fill="none" xmlns="http://www.w3.org/2000/svg">
<path d="M8.75 25.0011C5.51012 26.4304 3.5 28.4221 3.5 30.625C3.5 34.9742 11.335 38.5 21 38.5C30.665 38.5 38.5 34.9742 38.5 30.625C38.5 28.4221 36.4899 26.4304 33.25 25.0011M31.5 14C31.5 21.1115 23.625 24.5 21 29.75C18.375 24.5 10.5 21.1115 10.5 14C10.5 8.20101 15.201 3.5 21 3.5C26.799 3.5 31.5 8.20101 31.5 14ZM22.75 14C22.75 14.9665 21.9665 15.75 21 15.75C20.0335 15.75 19.25 14.9665 19.25 14C19.25 13.0335 20.0335 12.25 21 12.25C21.9665 12.25 22.75 13.0335 22.75 14Z" stroke="#F4F3F2" stroke-width="2" stroke-linecap="round" stroke-linejoin="round"/>
</svg>
