<svg width="82" height="65" viewBox="0 0 82 65" fill="none" xmlns="http://www.w3.org/2000/svg">
<path d="M42.8264 0.504354L79.1604 20.6899C81.1033 21.7749 81.8098 24.235 80.7248 26.1778C79.6398 28.1207 77.1797 28.8272 75.2368 27.7422L40.871 8.65426L6.49249 27.7548C4.54964 28.8398 2.08952 28.1333 1.00455 26.1904C-0.0804201 24.2476 0.626073 21.7875 2.56893 20.7025L38.9155 0.504354C40.1392 -0.176907 41.6153 -0.176907 42.8391 0.504354H42.8264ZM40.871 30.278C38.0828 30.278 35.8246 28.0198 35.8246 25.2316C35.8246 22.4435 38.0828 20.1852 40.871 20.1852C43.6591 20.1852 45.9174 22.4435 45.9174 25.2316C45.9174 28.0198 43.6591 30.278 40.871 30.278ZM18.6669 42.3893C15.8788 42.3893 13.6205 40.1311 13.6205 37.3429C13.6205 34.5548 15.8788 32.2966 18.6669 32.2966C21.455 32.2966 23.7133 34.5548 23.7133 37.3429C23.7133 40.1311 21.455 42.3893 18.6669 42.3893ZM68.1214 37.3429C68.1214 40.1311 65.8632 42.3893 63.0751 42.3893C60.2869 42.3893 58.0287 40.1311 58.0287 37.3429C58.0287 34.5548 60.2869 32.2966 63.0751 32.2966C65.8632 32.2966 68.1214 34.5548 68.1214 37.3429ZM29.1255 61.9945L25.7318 55.6992V60.5563C25.7318 62.7893 23.9277 64.5934 21.6947 64.5934H15.6391C13.406 64.5934 11.602 62.7893 11.602 60.5563V55.6992L8.20826 61.9945C7.41346 63.4706 5.58414 64.0131 4.10808 63.2309C2.63201 62.4487 2.08952 60.6068 2.87171 59.1307L7.65316 50.2617C9.5834 46.6661 13.343 44.4205 17.4305 44.4205H19.8906C21.947 44.4205 23.9151 44.9882 25.6183 46.0101L29.8572 38.1504C31.7875 34.5548 35.547 32.3092 39.6346 32.3092H42.0947C46.1823 32.3092 49.9292 34.5548 51.8721 38.1504L56.111 46.0101C57.8142 44.9882 59.7823 44.4205 61.8387 44.4205H64.2988C68.3864 44.4205 72.1333 46.6661 74.0762 50.2617L78.8576 59.1307C79.6524 60.6068 79.0973 62.4361 77.6213 63.2309C76.1452 64.0257 74.3159 63.4706 73.5211 61.9945L70.14 55.6992V60.5563C70.14 62.7893 68.3359 64.5934 66.1029 64.5934H60.0472C57.8142 64.5934 56.0101 62.7893 56.0101 60.5563V55.6992L52.6164 61.9945C51.8216 63.4706 49.9923 64.0131 48.5162 63.2309C47.0402 62.4487 46.4977 60.6068 47.2799 59.1307L51.8595 50.6149C51.645 50.4005 51.4558 50.1608 51.317 49.8832L47.9359 43.5878V50.4635C47.9359 52.6966 46.1318 54.5006 43.8988 54.5006H37.8431C35.6101 54.5006 33.806 52.6966 33.806 50.4635V43.5878L30.4123 49.8832C30.261 50.1608 30.0843 50.4005 29.8699 50.6149L34.4495 59.1307C35.2443 60.6068 34.6892 62.4361 33.2131 63.2309C31.737 64.0257 29.9077 63.4706 29.1129 61.9945H29.1255Z" fill="#C8C6C1"/>
</svg>
