<svg width="90" height="64" viewBox="0 0 90 64" fill="none" xmlns="http://www.w3.org/2000/svg">
<path d="M25.875 8.375C25.875 12.7203 22.3453 16.25 18 16.25C13.6547 16.25 10.125 12.7203 10.125 8.375C10.125 4.02969 13.6547 0.5 18 0.5C22.3453 0.5 25.875 4.02969 25.875 8.375ZM9 30.5516C7.59375 32.1266 6.75 34.2219 6.75 36.5C6.75 38.7781 7.59375 40.8734 9 42.4484V30.5516ZM29.3062 23.6187C25.1297 27.3172 22.5 32.7313 22.5 38.75C22.5 43.5734 24.1875 48.0031 27 51.4766V54.5C27 56.9891 24.9891 59 22.5 59H13.5C11.0109 59 9 56.9891 9 54.5V50.7313C3.68438 48.2 0 42.7859 0 36.5C0 27.7953 7.04531 20.75 15.75 20.75H20.25C23.625 20.75 26.7469 21.8047 29.3062 23.6047V23.6187ZM63 54.5V51.4766C65.8125 48.0031 67.5 43.5734 67.5 38.75C67.5 32.7313 64.8703 27.3172 60.6938 23.6047C63.2531 21.8047 66.375 20.75 69.75 20.75H74.25C82.9547 20.75 90 27.7953 90 36.5C90 42.7859 86.3156 48.2 81 50.7313V54.5C81 56.9891 78.9891 59 76.5 59H67.5C65.0109 59 63 56.9891 63 54.5ZM79.875 8.375C79.875 12.7203 76.3453 16.25 72 16.25C67.6547 16.25 64.125 12.7203 64.125 8.375C64.125 4.02969 67.6547 0.5 72 0.5C76.3453 0.5 79.875 4.02969 79.875 8.375ZM81 30.5516V42.4625C82.4062 40.8734 83.25 38.7922 83.25 36.5141C83.25 34.2359 82.4062 32.1406 81 30.5656V30.5516ZM45 18.5C40.0359 18.5 36 14.4641 36 9.5C36 4.53594 40.0359 0.5 45 0.5C49.9641 0.5 54 4.53594 54 9.5C54 14.4641 49.9641 18.5 45 18.5ZM33.75 38.75C33.75 41.0281 34.5938 43.1094 36 44.6984V32.8016C34.5938 34.3906 33.75 36.4719 33.75 38.75ZM54 32.8016V44.7125C55.4062 43.1234 56.25 41.0422 56.25 38.7641C56.25 36.4859 55.4062 34.3906 54 32.8156V32.8016ZM63 38.75C63 45.0359 59.3156 50.45 54 52.9813V59C54 61.4891 51.9891 63.5 49.5 63.5H40.5C38.0109 63.5 36 61.4891 36 59V52.9813C30.6844 50.45 27 45.0359 27 38.75C27 30.0453 34.0453 23 42.75 23H47.25C55.9547 23 63 30.0453 63 38.75Z" fill="#00488C"/>
</svg>
