<svg width="26" height="26" viewBox="0 0 31 30" fill="none" xmlns="http://www.w3.org/2000/svg">
<path d="M10.9753 11.0667C11.8453 12.8787 13.0313 14.577 14.5333 16.079C16.0353 17.581 17.7336 18.7669 19.5456 19.6369C19.7015 19.7118 19.7794 19.7492 19.878 19.7779C20.2284 19.8801 20.6588 19.8067 20.9556 19.5942C21.0391 19.5344 21.1105 19.463 21.2534 19.3201C21.6904 18.8831 21.9089 18.6646 22.1286 18.5217C22.9573 17.983 24.0255 17.983 24.8541 18.5217C25.0738 18.6646 25.2923 18.8831 25.7293 19.3201L25.9729 19.5637C26.6372 20.228 26.9694 20.5601 27.1498 20.9168C27.5086 21.6263 27.5086 22.4641 27.1498 23.1736C26.9694 23.5303 26.6372 23.8624 25.9729 24.5268L25.7759 24.7238C25.1138 25.3858 24.7828 25.7168 24.3328 25.9696C23.8334 26.2502 23.0578 26.4519 22.485 26.4502C21.9688 26.4486 21.6161 26.3485 20.9105 26.1482C17.1188 25.072 13.5408 23.0414 10.5558 20.0565C7.57085 17.0715 5.54026 13.4935 4.46404 9.70179C4.26379 8.99624 4.16366 8.64346 4.16212 8.12727C4.16042 7.5545 4.36212 6.77888 4.64264 6.2795C4.89545 5.82946 5.22647 5.49844 5.8885 4.83642L6.08554 4.63937C6.74984 3.97507 7.08199 3.64292 7.43872 3.46249C8.14817 3.10365 8.986 3.10365 9.69545 3.46249C10.0522 3.64292 10.3843 3.97507 11.0486 4.63937L11.2922 4.88296C11.7292 5.31997 11.9477 5.53847 12.0906 5.75819C12.6293 6.58681 12.6293 7.65503 12.0906 8.48365C11.9477 8.70337 11.7292 8.92187 11.2922 9.35888C11.1493 9.50177 11.0779 9.57321 11.0181 9.65673C10.8056 9.95352 10.7322 10.3838 10.8343 10.7343C10.8631 10.8329 10.9005 10.9108 10.9753 11.0667Z" stroke="#00488C" stroke-width="2" stroke-linecap="round" stroke-linejoin="round"/>
</svg>
