<svg width="322" height="314" viewBox="0 0 322 314" fill="none" xmlns="http://www.w3.org/2000/svg">
<path d="M100.552 55.2275L101.105 56.1531L103.159 59.6143L107.404 57.4351C107.797 57.2443 108.027 56.7539 108.097 56.1531C108.176 54.2869 106.795 51.7514 104.788 52.926L100.552 55.2275ZM96.1181 56.1531L94.9963 54.19C97.9472 52.367 101.105 50.7825 104.165 49.1845C107.759 47.2363 112.825 51.9392 112.47 56.1531C112.406 56.9059 112.193 57.5752 111.738 58.2534L119.088 63.4899L115.002 65.3666L108.56 60.7666L105.012 62.6239L108.794 68.7399L104.738 71.1904L96.1181 56.1531ZM193.267 253.243L199.956 271.935L203.979 270.537L197.486 251.933L193.267 253.243ZM166.509 270.879L164.939 267.101L163.35 263.019L160.624 271.132L166.509 270.879ZM169.149 267.101L173.529 277.491L169.489 277.831L168.134 274.471L159.383 274.717L158.377 278.221L154.281 278.062L158.063 267.101L160.749 258.788L160.883 258.52L165.343 258.326L165.573 258.851L169.149 267.101ZM191.128 48.6688L195.647 50.0968C196.888 50.4381 198.518 48.5466 198.518 46.8994C198.518 46.1109 198.243 45.4148 197.163 45.1823C195.498 44.5517 194.346 44.267 192.527 43.8228L191.591 46.8994L191.128 48.6688ZM188.352 58.9972L183.749 57.8435L187.033 46.8994L189.43 39.0931C192.902 39.9279 196.192 41.0279 199.484 42.0758C201.348 42.6348 202.345 44.6978 202.534 46.8994C202.659 49.8821 201.142 53.1197 198.065 53.795L199.26 62.6239L195.149 60.9827L194.097 53.2733L190.235 52.1136L188.352 58.9972ZM126.856 257.707C126.74 257.157 126.507 256.713 125.81 256.4L120.747 254.574L119.596 257.707L119.193 258.851L119.158 258.93L123.777 260.617C125.043 261.169 126.267 260.061 126.712 258.851C126.856 258.52 126.99 258.107 126.856 257.707ZM130.654 257.707V258.788C130.343 261.425 128.516 264.101 125.551 264.441L126.238 273.642C124.867 273.335 123.304 272.891 121.843 272.283L121.684 263.622L117.703 261.953L114.474 269.597L110.588 268.155L114.679 258.851L115.171 257.707L118.5 250.032L127.558 253.452C129.577 254.158 130.503 255.91 130.654 257.707ZM188.477 254.916C182.589 256.172 178.059 257.22 172.225 258.107L172.761 261.425C174.919 261.093 176.898 260.839 179.175 260.559L182.118 276.52L186.45 275.727L182.937 259.802L189.43 258.204L188.477 254.916ZM210.58 68.1272L214.95 59.8976L226.749 54.5299C225.509 53.6579 224.169 53.0482 222.922 52.2537L214.796 55.8714L213.296 47.2363C211.597 46.4523 210.58 46.1109 208.812 45.4148L211.175 57.9568L206.794 66.097L210.58 68.1272ZM254.827 73.1595C252.969 70.937 249.875 71.2679 248.993 72.8196L235.256 86.3156C233.243 88.3622 233.436 91.3643 235.524 92.8207C256.252 115.256 264.913 143.191 258.117 177.784C257.966 180.054 259.427 181.873 261.24 182.382L280.229 187.764C282.751 188.47 284.375 186.969 284.908 184.849C294.684 142.266 281.306 100.399 254.827 73.1595ZM276.792 197.69L257.787 191.348C256.797 190.983 254.201 190.983 252.838 194.254C237.497 230.249 201.763 254.881 160.39 254.881C118.963 254.881 82.5798 229.682 67.8908 193.693C67.5618 192.773 66.88 192.014 65.9895 191.577C65.099 191.139 64.0696 191.058 63.1185 191.348L44.218 197.69C42.1694 198.414 40.9287 200.194 42.0094 202.767C60.5761 249.098 106.742 281.808 160.39 281.808C214.03 281.808 260.409 248.873 279.032 202.565C279.995 200.14 278.828 198.414 276.792 197.69ZM41.1177 187.764L60.0685 182.382C61.8518 181.873 63.3166 180.054 63.1718 177.784C56.3661 143.254 65.01 115.256 85.7091 92.8207C87.8064 91.3643 88.0305 88.3622 86.0322 86.3156L72.2455 72.769C70.9057 71.2679 68.4701 71.2679 66.3849 73.3533C39.9669 100.539 26.6329 142.266 36.4154 184.921C36.9581 186.969 38.6088 188.47 41.1177 187.764ZM231.308 101.436C231.359 100.618 230.84 99.5701 229.655 98.4298C214.487 82.7292 198.896 73.9451 177.515 68.9739C176.31 68.6772 174.919 68.3985 173.993 69.2049C173.037 69.9517 172.761 71.3991 172.956 73.5635L176.48 121.937C176.588 123.769 177.436 125.216 178.683 125.957C180.056 126.716 181.696 126.576 183.4 125.775L227.944 104.744C229.371 104.072 231.004 103.331 231.308 101.84C231.308 101.752 231.359 101.63 231.308 101.436ZM240.314 187.904C241.643 188.741 243.168 189.761 244.568 189.283C245.514 189.001 246.327 187.989 246.851 186.16C253.088 165.485 253.088 147.824 246.851 127.394C246.467 126.113 245.853 124.787 244.757 124.308C243.65 123.915 242.251 124.362 240.253 125.687L199.394 152.855C197.815 153.892 197.013 155.316 197.013 156.781C197.013 158.239 197.815 159.652 199.394 160.67L240.314 187.904ZM173.877 244.118C174.625 244.693 175.866 244.867 177.765 244.405C199.021 239.415 214.601 230.608 229.789 215.021C230.7 213.992 231.688 212.936 231.394 211.767C231.119 210.641 230.138 209.622 228.069 208.671L183.51 187.528C181.821 186.744 180.181 186.744 178.817 187.442C177.515 188.251 176.713 189.619 176.588 191.53L172.991 239.765C172.956 241.344 172.761 243.152 173.877 244.118ZM160.39 188.251C177.989 188.251 192.288 174.285 192.288 157.078C192.288 139.87 177.989 125.897 160.39 125.835C142.801 125.835 128.516 139.878 128.516 157.078C128.516 174.278 142.801 188.251 160.39 188.251ZM90.3138 212.57C90.3138 213.399 90.8854 214.428 91.963 215.528C107.288 231.277 122.795 240.053 144.102 244.939C145.468 245.349 146.803 245.549 147.753 244.824C148.706 244.118 148.985 242.67 148.825 240.394C148.825 240.315 145.201 192.027 145.201 192.027C145.049 190.195 144.336 188.801 143.025 188.06C141.693 187.3 140.046 187.3 138.272 188.094L93.8272 209.246C92.2755 209.953 90.5973 210.747 90.3672 212.166C90.3672 212.263 90.3138 212.448 90.3138 212.57ZM89.6706 102.216C89.8596 103.672 91.553 104.413 93.033 105.091L137.524 126.228C139.287 127.057 140.927 127.057 142.276 126.365C143.523 125.572 144.336 124.177 144.448 122.327L148.044 74.0598C148.242 71.7315 147.904 70.3616 147.047 69.6461C146.101 68.8606 144.706 69.0827 143.371 69.3242C122.057 74.3386 106.512 83.1481 91.1948 98.7697C89.9587 100.131 89.3855 101.281 89.6706 102.216ZM80.7355 126.009C79.2814 125.094 77.7374 124.037 76.4707 124.587C75.4358 124.894 74.6874 125.957 74.1432 127.667C67.961 148.425 67.961 166.02 74.1432 186.5C74.5624 187.832 75.0364 189.157 76.2756 189.499C77.2923 189.907 78.7891 189.499 80.7355 188.182L121.556 160.986C123.074 159.983 124.001 158.57 124.001 157.148C124.001 155.596 123.074 154.243 121.556 153.196L80.7355 126.009ZM79.8439 65.5976L93.033 79.9656C94.8712 81.9005 96.9046 81.6634 99.5705 79.6288C116.233 66.8453 137.609 59.2819 160.39 59.2819C183.196 59.2819 204.592 66.814 221.413 79.6288C224.045 81.5263 226.018 81.9005 227.944 79.9656L241.144 65.5976C242.633 64.0116 242.633 61.8204 239.78 59.4757C217.66 42.6348 190.351 32.2438 160.336 32.2438C130.503 32.2438 102.809 42.6348 81.0816 59.5547C78.245 61.8204 78.3699 64.0116 79.8439 65.5976ZM321.058 157.2C321.058 159.032 320.968 160.864 320.764 162.328L320.709 162.73L320.275 162.946C313.449 166.917 304.63 169.183 295.78 169.422C295.567 170.51 294.614 178.325 294.448 179.425C302.699 181.75 310.697 186.16 316.269 191.793L316.493 192.143V192.499C316.056 195.579 314.94 199.705 313.708 202.382L313.568 202.81L313.166 202.869C305.432 205.041 296.318 204.964 287.888 202.922L284.057 212.263C291.445 216.835 297.977 223.106 301.65 229.805L301.848 230.18L301.723 230.571C300.576 233.241 298.411 237.095 296.478 239.415L296.273 239.765H295.78C287.888 239.853 279.078 237.568 271.38 233.372L264.841 241.807C270.906 247.913 275.5 255.656 277.365 263.291L277.488 263.691L277.269 263.959C275.5 266.298 272.261 269.397 269.916 271.253L269.641 271.488L269.059 271.375C261.461 269.397 253.433 264.904 247.198 259.007C246.272 259.685 239.904 264.554 238.958 265.244C243.034 272.554 245.514 280.951 245.514 288.551V289.605L245.031 289.867C242.685 291.714 238.779 293.928 235.997 295.038L235.713 295.161L235.256 295.013C228.415 291.115 221.87 284.765 217.392 277.491L207.501 281.651C208.568 285.737 209.173 289.926 209.305 294.141C209.305 298.371 208.553 302.611 207.501 306.43L207.437 306.814L207.029 307.033C204.433 308.087 200.052 309.15 197.013 309.666L196.539 309.734L196.28 309.412C190.386 303.936 185.882 296.147 183.51 288.01C182.464 288.089 174.43 289.152 173.296 289.38C173.162 297.917 170.764 306.571 166.608 313.274L166.384 313.628L165.911 313.686C163.129 314.105 158.66 314.105 155.621 313.686L155.246 313.628L154.978 313.274C150.954 306.571 148.546 297.917 148.351 289.38C147.156 289.264 138.687 288.089 137.524 288.01C135.199 296.095 130.654 303.839 124.918 309.378L124.615 309.666L124.144 309.597C121.006 309.15 116.884 307.965 114.11 306.839L113.781 306.683L113.638 306.343C112.47 302.529 111.873 298.258 111.873 294.019C111.873 289.867 112.47 285.706 113.548 281.651L104.094 277.831C99.5705 285.235 93.0331 291.665 86.1313 295.414L85.764 295.614L85.3265 295.5C82.4716 294.253 78.7083 292.144 76.2756 290.355L75.9815 290.067V289.264C75.9815 281.571 78.3699 273.11 82.4716 265.714C81.5632 265.016 74.7316 259.949 73.7957 259.261C67.5449 265.158 59.5792 269.597 51.8818 271.531L51.4886 271.645L51.0694 271.375C48.716 269.528 45.6919 266.536 43.7836 264.189L43.5244 263.776L43.6403 263.378C45.6919 255.788 50.2921 248.044 56.2869 242.023C55.5994 241.113 50.4368 234.567 49.7067 233.582C42.0901 237.759 33.1963 240.166 25.2931 239.975H24.8755L24.6057 239.713C22.7614 237.323 20.5497 233.503 19.3639 230.799L19.184 230.399L19.3639 230.036C23.3406 223.228 29.8323 216.947 37.2462 212.605L33.0713 203.141C24.6407 205.198 15.4725 205.251 7.76899 203.141L7.39403 203.029L7.16084 202.688C6.11979 200.14 4.97507 195.867 4.50409 192.85L4.4218 192.377L4.69922 192.027C10.3099 186.437 18.1932 182.007 26.6329 179.562C26.543 178.413 25.2931 170.1 25.1788 168.949C16.3641 168.836 7.51902 166.61 0.634058 162.61L0.285003 162.38L0.249976 161.918C0.0609715 160.524 0 158.692 0 156.841C0 155.037 0.0609715 153.268 0.249976 151.758L0.285003 151.294L0.634058 151.104C7.51902 147.134 16.3641 144.838 25.1788 144.71C25.3571 143.576 26.3997 135.491 26.543 134.401C18.1932 132.062 10.2306 127.598 4.57572 122.023L4.341 121.752L4.4218 121.317C4.78914 118.213 5.98413 114.051 7.16084 111.479L7.29495 111.103L7.70498 110.988C15.3231 108.79 24.5356 108.852 33.0012 110.884C33.4706 109.872 36.5587 102.59 37.0221 101.49C29.5488 97.0689 22.9915 90.78 19.0849 83.9858L18.8898 83.558L19.0849 83.1481C20.3165 80.4218 22.519 76.7265 24.252 74.4072L24.5355 74.0598H25.0096C33.0011 73.9451 41.8112 76.336 49.4202 80.459C50.1229 79.6288 55.3144 72.769 56.0216 71.8537C49.9918 65.7065 45.4236 58.003 43.4513 50.3696L43.3644 50.0476L43.5244 49.7063C45.4587 47.3436 48.6626 44.267 50.9993 42.4559L51.3727 42.2308L51.7309 42.3009C59.5792 44.267 67.4976 48.8372 73.6616 54.6998C74.5624 53.9992 80.7356 49.353 81.6531 48.6688C77.4082 41.4065 75.0364 32.925 75.0364 25.3959V24.2675L75.4282 24.0052C77.7374 22.2298 81.6531 20.0357 84.444 18.9281L84.7473 18.7433L85.2107 18.9371C92.088 22.7456 98.5538 29.1045 103.078 36.3981C104.165 35.9971 112.193 32.5836 113.289 32.1588C112.246 28.0909 111.584 23.8934 111.658 19.7226C111.658 15.3835 112.193 11.253 113.359 7.44597L113.414 6.97643L113.833 6.87059C116.418 5.80779 120.747 4.67493 123.777 4.21284L124.269 4.15321L124.615 4.45431C130.343 9.89653 134.908 17.6999 137.315 25.9221C138.495 25.8058 146.931 24.7683 148.056 24.5686C148.242 16.099 150.605 7.44597 154.745 0.720338L154.923 0.377497L155.362 0.258248C158.377 -0.0860827 162.826 -0.0860827 165.76 0.258248L166.144 0.377497L166.384 0.720338C170.549 7.44597 172.956 16.099 172.956 24.4896C174.223 24.7683 182.464 25.8058 183.644 25.9221C186.106 17.6999 190.636 9.95914 196.396 4.49158L196.664 4.21284L197.038 4.32612C200.517 4.77202 203.921 5.66309 207.163 6.97643L207.501 7.1076L207.636 7.56671C208.812 11.338 209.384 15.4461 209.384 19.7226C209.305 23.9306 208.678 28.1729 207.636 32.2438L217.811 36.3981C222.254 29.1045 228.638 22.7888 235.595 18.9371L235.997 18.7433L236.416 18.9281C239.163 20.0699 243.014 22.2298 245.389 24.0558L245.738 24.2675V25.3214C245.738 33.0472 243.292 41.4811 239.163 48.6688L247.663 55.1589C253.907 49.2278 261.828 44.6978 269.641 42.8286L269.989 42.6348L270.332 42.9911C272.684 44.6978 275.849 47.928 277.648 50.2384L277.98 50.5812L277.837 50.9733C275.849 58.6067 271.146 66.3564 265.155 72.4187C265.849 73.3533 270.836 79.7748 271.603 80.6975C279.372 76.6043 288.147 74.27 296.113 74.4072H296.478L296.736 74.7604C298.67 77.1737 300.883 80.9166 301.964 83.4894L302.229 83.9858L301.964 84.3615C298.012 91.102 291.513 97.3387 284.057 101.797L288.121 111.242C296.478 109.185 305.671 109.131 313.289 111.242L313.743 111.328L313.913 111.757C314.975 114.348 316.214 118.55 316.618 121.639L316.691 122.023L316.377 122.327C310.783 127.989 302.821 132.428 294.448 134.741L295.855 144.989C304.665 145.171 313.449 147.484 320.275 151.436L320.709 151.689L320.764 152.089C320.968 153.545 321.058 155.316 321.058 157.2ZM231.119 231.277L239.475 240.097L225.445 236.049C224.279 236.915 223.492 237.218 222.459 238.098L234.677 254.158C235.713 253.365 236.8 252.395 237.771 251.583L230.362 241.929L244.533 246.099C245.514 245.271 246.895 244.337 247.862 243.167L233.715 228.539C232.964 229.343 232.092 230.399 231.119 231.277ZM221.413 254.768C221.413 253.58 221.104 252.528 220.532 251.505C218.857 248.463 214.876 247.474 211.781 249.212C209.605 250.354 208.492 252.528 208.492 254.768C208.553 255.788 208.812 256.941 209.43 257.907C209.605 258.204 209.809 258.52 210.126 258.851C212.067 261.127 215.493 261.65 218.134 260.149C218.857 259.802 219.435 259.346 219.898 258.851C220.861 257.707 221.413 256.172 221.413 254.768ZM223.69 249.847C224.547 251.323 224.966 253.024 225.036 254.768C225.036 256.129 224.742 257.523 224.169 258.788C223.227 260.617 221.832 262.26 219.898 263.349C215.18 266.044 209.071 264.441 206.207 259.686C206.111 259.417 205.977 259.121 205.791 258.788C205.209 257.523 204.932 256.129 204.816 254.768C204.932 251.27 206.68 248.044 209.882 246.227C214.681 243.568 220.861 245.164 223.69 249.847ZM244.812 223.577L247.198 227.257L249.377 230.975L252.32 227.257L253.088 226.332L244.812 223.577ZM242.525 219.075L262.63 225.531C262.157 226.115 261.782 226.673 261.354 227.257C261.006 227.701 260.596 228.149 260.313 228.724L256.797 227.482L251.311 234.192L253.308 237.261C252.491 238.169 251.568 239.166 250.527 240.166L239.62 222.505L242.525 219.075ZM264.788 216.163L250.029 208.218L248.136 211.542L265.849 221.214L272.684 209.246L269.641 207.65L264.788 216.163ZM148.044 257.907L146.576 269.927L140.668 256.739C139.287 256.479 138.422 256.129 137.032 255.91L132.389 275.352C133.831 275.727 135.199 275.876 136.683 276.121L139.164 264.189L145.148 277.491C146.5 277.691 148.044 278.109 149.626 278.062L151.846 257.985C150.678 257.927 149.294 258.107 148.044 257.907ZM147.36 39.8965L149.134 55.9996L153.46 55.5494L151.765 39.5746L158.313 39.1706L158.063 35.5857C150.759 35.9971 147.753 36.2818 140.519 37.3387L141.002 40.7522L147.36 39.8965ZM167.391 48.6688C169.588 48.7716 171.63 49.0086 173.679 49.2963L172.603 45.1823L171.246 40.943L169.204 45.1823L167.391 48.6688ZM164.047 55.3676L159.927 55.3497L169.489 35.942L173.993 36.3981L176.364 45.1823L179.638 56.9819C178.123 56.7121 176.944 56.4841 175.508 56.4065L174.348 52.6979C171.371 52.2537 168.676 52.1136 165.911 51.9914L164.047 55.3676ZM122.182 50.5007C122.448 53.9992 125.626 56.5526 129.067 56.2649C132.473 55.9281 135.007 53.2733 135.007 49.9284C135.132 49.7599 135.007 49.5661 135.007 49.353C134.713 45.8262 131.619 43.3607 128.032 43.6916C124.615 43.945 122.057 46.5745 122.182 49.9284V50.5007ZM118.5 50.851V49.9284C118.39 44.8394 122.378 40.6433 127.622 40.2364C128.939 40.11 130.269 40.2409 131.534 40.6216C132.799 41.0022 133.973 41.6249 134.99 42.4535C136.006 43.2821 136.844 44.3 137.455 45.4482C138.065 46.5963 138.437 47.8517 138.547 49.1413V49.9284C138.547 55.0113 134.62 59.3535 129.298 59.8349C123.911 60.2985 118.963 56.3275 118.5 50.851ZM160.749 175.909C171.246 175.909 179.878 167.476 179.878 157.2C179.878 148.659 173.804 141.237 165.448 139.197C165.343 138.359 165.108 134.459 165.108 134.459H155.467L155.164 139.536C151.283 140.677 147.882 143.013 145.467 146.195C143.053 149.378 141.752 153.237 141.76 157.2C141.76 167.476 150.375 175.909 160.749 175.909ZM160.39 185.206C144.575 185.206 131.651 172.516 131.651 157.078C131.651 141.535 144.575 128.904 160.39 128.904C176.309 128.904 189.119 141.535 189.119 157.078C189.119 172.585 176.247 185.206 160.39 185.206ZM103.771 246.456C106.512 247.913 109.196 249.429 112.193 250.827L113.985 247.913C109.836 245.818 105.949 243.42 102.451 241.047L91.0104 257.482C95.3453 260.289 99.3129 262.643 103.771 265.158L105.62 262.26L96.3864 256.941L99.511 252.659L105.62 256.25L107.404 253.452C105.44 252.395 103.389 251.183 101.249 249.901L103.771 246.456ZM80.8864 222.086L71.4773 230.036L76.2756 216.406C75.4282 215.24 75.0365 214.428 74.1432 213.354L57.2776 224.544C58.0352 225.653 58.9527 226.673 59.7575 227.816L69.8983 220.952L65.1441 234.679C65.9627 235.588 66.7949 236.973 67.961 237.899L83.5615 224.816C82.6957 223.915 81.6531 223.106 80.8864 222.086ZM69.7382 206.246L52.3711 216.163C52.9976 217.36 53.6652 218.753 54.4319 219.895L71.8325 209.953L69.7382 206.246ZM91.1948 237.149L80.4932 249.57L77.1582 246.744L88.2256 234.679C86.4773 233.095 85.1345 231.662 83.4365 230.18L85.8981 227.764C90.1187 231.662 93.8272 234.679 98.4837 238.343L96.3422 241.013L91.1948 237.149Z" fill="#002547"/>
</svg>
